<?xml version="1.0" standalone="no"?>
<!DOCTYPE svg PUBLIC "-//W3C//DTD SVG 20010904//EN"
 "http://www.w3.org/TR/2001/REC-SVG-20010904/DTD/svg10.dtd">
<svg version="1.0" xmlns="http://www.w3.org/2000/svg"
 width="992.000000pt" height="992.000000pt" viewBox="0 0 992.000000 992.000000"
 preserveAspectRatio="xMidYMid meet">
<metadata>
Created by potrace 1.11, written by Peter Selinger 2001-2013
</metadata>
<g transform="translate(0.000000,992.000000) scale(0.100000,-0.100000)"
fill="#000000" stroke="none">
<path d="M5326 9909 c4 -7 -5 -9 -25 -6 -17 3 -31 2 -31 -1 0 -4 -25 -6 -55
-6 -35 1 -52 -2 -48 -9 4 -6 0 -8 -9 -4 -9 3 -21 0 -28 -6 -7 -7 -10 -7 -7 -2
3 6 -8 10 -24 10 -17 1 -28 -4 -26 -10 4 -9 -27 -14 -100 -15 -13 0 -23 -6
-23 -13 0 -8 -4 -7 -10 3 -8 12 -10 12 -10 1 0 -8 -3 -11 -7 -8 -3 4 -12 2
-20 -4 -8 -7 -13 -8 -13 -1 0 5 -9 8 -20 5 -11 -3 -20 -10 -20 -17 0 -6 -5 -4
-10 4 -5 8 -10 10 -10 4 0 -7 -7 -15 -16 -18 -10 -4 -13 -2 -8 7 6 9 4 9 -8
-1 -8 -7 -23 -9 -32 -6 -10 4 -16 2 -14 -4 3 -8 -5 -14 -14 -11 -21 6 -37 5
-32 -2 3 -5 -2 -10 -10 -10 -29 -3 -34 -4 -41 -11 -4 -4 -14 -4 -23 -1 -10 4
-13 2 -8 -5 5 -8 2 -10 -8 -6 -9 4 -16 1 -16 -6 0 -10 -3 -10 -15 0 -11 9 -15
9 -15 1 0 -7 -4 -9 -10 -6 -5 3 -10 1 -10 -5 0 -6 -4 -8 -10 -5 -5 3 -10 1
-10 -5 0 -6 -4 -9 -9 -6 -4 3 -24 -3 -44 -13 -20 -10 -34 -14 -30 -7 4 6 -1 5
-10 -2 -9 -8 -22 -10 -28 -6 -8 4 -9 3 -5 -4 4 -7 2 -12 -5 -12 -7 0 -21 -8
-32 -17 -11 -10 -18 -13 -14 -7 3 6 0 11 -8 11 -8 0 -12 -4 -9 -9 3 -4 -1 -8
-10 -8 -9 0 -13 -8 -11 -25 1 -14 -2 -25 -7 -25 -6 0 -8 -7 -4 -15 3 -8 0 -15
-7 -15 -9 0 -9 -2 0 -8 8 -5 8 -11 -1 -24 -7 -10 -16 -15 -19 -11 -4 3 -5 -4
-2 -16 2 -11 -1 -21 -6 -21 -6 0 -7 -4 -4 -10 3 -5 1 -10 -5 -10 -6 0 -8 -5
-4 -12 4 -6 3 -8 -4 -4 -6 3 -14 1 -18 -5 -5 -8 -13 -4 -26 12 -11 13 -16 17
-12 9 5 -10 -1 -8 -16 5 -13 11 -20 14 -16 8 4 -7 2 -13 -3 -13 -6 0 -11 7
-11 15 0 8 -8 15 -18 15 -10 0 -24 6 -31 13 -11 10 -13 9 -8 -5 7 -20 -23 -34
-35 -16 -5 9 -8 6 -8 -10 0 -13 4 -21 8 -18 4 2 8 -4 8 -14 0 -13 -4 -16 -12
-10 -6 6 -14 7 -17 3 -9 -9 13 -34 24 -27 17 10 9 -10 -13 -34 -13 -14 -16
-21 -8 -16 29 17 46 14 47 -9 1 -12 -1 -17 -5 -12 -10 14 -32 17 -32 4 0 -6
-7 -9 -15 -6 -8 4 -17 2 -20 -3 -4 -7 -13 -6 -26 0 -15 9 -19 7 -19 -7 0 -12
-3 -14 -8 -6 -4 7 -16 10 -27 9 -11 -2 -26 1 -33 7 -10 8 -12 7 -10 -3 2 -7
-3 -15 -11 -18 -8 -3 -11 0 -7 7 4 6 1 11 -8 11 -9 0 -16 6 -16 13 0 8 -6 14
-14 14 -8 0 -12 -6 -9 -14 3 -8 0 -13 -8 -11 -8 2 -13 -3 -11 -10 1 -8 -2 -11
-8 -7 -5 3 -10 14 -10 23 0 14 -2 14 -9 3 -5 -8 -16 -11 -24 -8 -8 3 -20 0
-26 -6 -6 -6 -11 -7 -11 -1 0 5 -5 2 -10 -6 -9 -13 -12 -13 -20 2 -11 17 -40
14 -40 -4 0 -6 6 -6 14 1 12 10 13 8 9 -10 -4 -14 -2 -20 4 -16 6 4 14 0 17
-9 3 -8 10 -12 16 -9 5 3 10 1 10 -5 0 -6 4 -9 9 -6 5 4 12 0 14 -6 4 -10 6
-10 6 -1 1 9 8 10 27 3 14 -6 23 -6 20 -2 -3 5 1 9 9 9 8 0 12 -4 10 -8 -3 -4
1 -9 9 -12 8 -3 17 1 20 10 5 12 9 13 20 4 11 -9 16 -9 22 0 5 8 3 10 -7 4 -8
-5 -11 -4 -6 1 9 9 14 11 48 13 11 0 18 5 14 10 -3 5 -1 13 5 16 6 4 9 1 8 -6
-2 -6 3 -14 11 -17 9 -3 11 0 6 8 -6 9 -3 9 14 1 16 -9 21 -9 21 1 0 9 3 9 10
-2 5 -8 15 -15 22 -16 7 0 23 -2 36 -2 16 -2 21 -6 16 -14 -6 -10 -5 -10 7 -2
11 9 17 9 27 -2 7 -8 9 -14 3 -14 -10 0 -9 -25 2 -36 3 -4 2 -16 -4 -27 -8
-14 -8 -18 0 -13 7 5 11 -9 11 -43 0 -30 5 -51 13 -54 8 -3 6 -10 -7 -26 -20
-22 -20 -22 0 -15 10 4 17 5 14 3 -53 -44 -54 -45 -47 -25 7 18 6 18 -19 1
-15 -9 -23 -12 -19 -6 7 13 -31 11 -52 -2 -6 -4 -15 -2 -19 4 -5 8 -3 9 6 4 9
-6 11 -4 6 4 -6 9 -13 8 -27 -5 -18 -17 -20 -16 -33 1 -9 12 -15 15 -20 7 -4
-7 -12 -12 -17 -12 -6 0 -7 6 -3 13 6 9 5 9 -8 0 -8 -7 -18 -10 -21 -6 -4 3
-20 6 -37 5 -20 0 -28 3 -24 10 5 7 2 8 -7 2 -22 -13 -43 -14 -51 -1 -5 8 -8
6 -8 -6 0 -15 -3 -16 -20 -7 -17 9 -20 8 -20 -7 -1 -15 -3 -14 -13 5 -7 12
-16 19 -20 16 -4 -4 -7 -2 -7 5 0 7 -5 9 -12 5 -8 -5 -9 -2 -5 9 3 9 1 19 -5
23 -6 4 -8 3 -4 -4 3 -6 0 -17 -8 -25 -10 -10 -11 -18 -5 -24 7 -7 1 -10 -21
-8 -17 1 -34 5 -37 9 -4 3 -15 -1 -25 -11 -10 -9 -18 -11 -18 -5 0 6 -9 9 -20
7 -11 -2 -18 0 -15 4 3 5 -2 11 -10 15 -8 3 -17 0 -21 -6 -5 -7 -2 -8 6 -3 9
5 11 4 6 -4 -6 -9 -11 -9 -22 0 -8 6 -14 8 -14 5 0 -4 -11 6 -25 21 -19 22
-24 23 -18 8 3 -11 3 -17 -2 -13 -4 4 -16 3 -26 -3 -15 -8 -19 -6 -19 7 0 14
-3 14 -16 4 -8 -8 -14 -9 -13 -4 3 20 -2 24 -15 12 -8 -7 -12 -16 -10 -19 2
-4 -7 -6 -21 -5 -14 0 -25 6 -25 12 0 17 -43 26 -52 11 -6 -9 -8 -8 -8 3 0 9
-3 11 -8 5 -6 -9 -27 -11 -42 -5 -19 7 -39 7 -34 -1 9 -15 -8 -10 -28 8 -16
14 -18 15 -13 1 5 -12 0 -15 -25 -12 -17 2 -35 6 -39 8 -4 3 -8 -9 -9 -25 -1
-16 3 -29 8 -29 6 0 9 -4 6 -8 -2 -4 4 -27 14 -50 11 -23 17 -42 14 -42 -3 0
1 -7 10 -15 8 -9 12 -23 9 -32 -4 -10 -2 -14 4 -10 6 4 10 -1 9 -11 -1 -12 5
-16 21 -15 14 2 22 -2 20 -10 -1 -6 3 -11 10 -10 8 2 10 -4 6 -14 -5 -12 -2
-15 10 -10 9 3 17 2 17 -3 0 -5 9 -7 20 -5 11 2 20 -1 20 -8 0 -8 3 -8 11 0 6
6 26 7 47 4 20 -4 61 -6 90 -6 28 0 52 -3 52 -6 0 -4 10 -11 21 -14 15 -5 18
-10 9 -15 -6 -4 -12 -11 -13 -16 -1 -5 -5 -8 -9 -6 -5 1 -8 -2 -8 -8 0 -5 -7
-6 -17 -3 -11 4 -14 3 -9 -5 4 -7 3 -12 -3 -12 -5 0 -13 10 -16 21 -4 12 -10
17 -14 12 -7 -10 -50 -11 -66 -2 -5 4 -19 3 -30 -2 -11 -4 -14 -8 -7 -8 7 -1
10 -6 6 -13 -5 -7 -2 -9 8 -5 9 3 21 0 27 -6 7 -7 12 -7 11 -2 -5 25 1 28 16
7 9 -13 20 -19 27 -15 19 12 52 10 66 -4 6 -7 9 -13 4 -13 -4 0 2 -7 13 -15
19 -15 19 -15 -1 -8 -17 6 -18 5 -7 -9 9 -12 10 -18 2 -23 -8 -5 -8 -11 1 -21
6 -7 9 -20 6 -29 -4 -8 -2 -17 2 -20 5 -3 7 -15 3 -27 -4 -16 -2 -19 9 -13 12
8 12 6 0 -8 -8 -11 -9 -17 -3 -17 18 0 3 -26 -16 -28 -9 -1 -26 -3 -37 -6 -11
-2 -25 1 -32 6 -7 5 -18 6 -25 2 -18 -11 -48 -12 -48 -2 0 5 -9 4 -19 -2 -14
-7 -22 -7 -26 0 -5 8 -11 7 -21 -1 -11 -9 -14 -9 -14 0 0 8 -5 9 -18 2 -13 -7
-22 -7 -30 1 -7 7 -16 8 -24 2 -16 -11 -38 -11 -55 -1 -8 5 -13 3 -13 -4 0 -8
-3 -9 -14 0 -25 21 -37 -12 -38 -107 0 -50 3 -96 7 -103 5 -8 4 -10 -3 -5 -18
11 -14 -10 4 -29 14 -13 19 -14 25 -3 7 10 9 10 9 -2 0 -12 2 -13 9 -1 7 11
11 10 20 -5 9 -17 10 -17 11 -2 0 21 16 32 26 17 5 -8 3 -9 -7 -4 -8 5 -10 4
-6 0 12 -14 37 -15 37 -2 0 7 7 3 15 -7 13 -17 15 -17 15 -4 0 22 16 32 26 17
5 -8 3 -9 -7 -4 -8 5 -10 4 -6 0 12 -14 37 -15 37 -2 0 7 7 3 15 -7 13 -17 15
-17 15 -4 0 22 16 32 26 17 5 -8 3 -9 -7 -4 -8 5 -10 4 -6 0 12 -14 37 -15 37
-2 0 7 7 3 15 -7 13 -17 15 -17 15 -4 0 22 16 32 26 17 5 -8 3 -9 -7 -4 -8 5
-11 4 -6 0 10 -12 50 -17 43 -7 -3 5 1 9 9 9 8 0 12 -4 10 -8 -7 -11 29 -5 37
6 5 6 8 5 8 -2 0 -7 7 -13 15 -13 8 0 15 5 15 11 0 6 7 3 16 -5 8 -9 20 -14
25 -11 5 4 9 0 9 -9 0 -8 6 -17 13 -20 6 -4 2 -4 -11 -2 -12 2 -20 1 -17 -4 3
-4 -2 -10 -10 -14 -8 -3 -15 0 -15 6 0 7 -7 3 -15 -8 -9 -12 -13 -13 -10 -4 4
11 -1 16 -15 16 -11 0 -20 -7 -20 -15 0 -11 -4 -10 -14 4 -11 16 -16 17 -29 7
-13 -11 -17 -10 -26 5 -10 17 -10 17 -11 0 0 -12 -4 -16 -12 -10 -21 12 -38
12 -38 0 0 -7 -7 -3 -15 7 -14 18 -15 18 -15 2 0 -11 -4 -15 -12 -9 -21 12
-38 12 -38 0 0 -7 -7 -3 -15 7 -14 19 -15 19 -15 2 0 -15 -3 -16 -15 -6 -13
11 -19 9 -38 -11 -12 -13 -21 -28 -19 -33 2 -4 -4 -6 -13 -3 -9 4 -15 1 -15
-8 0 -8 -7 -15 -16 -15 -8 0 -12 -4 -9 -10 5 -9 -7 -14 -27 -11 -4 0 -5 -8 -3
-19 2 -12 0 -18 -5 -15 -6 3 -18 1 -27 -4 -10 -6 -13 -11 -8 -11 6 0 -3 -10
-19 -23 l-29 -23 25 -27 c14 -15 29 -23 33 -19 5 4 5 -1 2 -10 -4 -11 -2 -17
6 -15 7 1 11 -4 9 -10 -1 -7 3 -13 9 -13 13 0 32 -19 48 -48 7 -12 16 -20 22
-17 5 4 9 0 9 -8 0 -17 51 -63 65 -58 30 10 54 10 60 1 5 -8 11 -7 22 1 11 10
16 10 22 0 6 -10 10 -9 15 4 4 12 10 14 19 7 6 -5 22 -8 35 -6 17 3 21 0 16
-8 -6 -10 -4 -10 8 0 9 7 19 9 22 4 3 -5 17 -7 31 -5 13 3 22 9 19 14 -3 5 2
6 10 3 9 -3 13 -11 9 -18 -5 -8 -3 -8 8 0 8 6 32 11 54 10 22 -1 50 2 63 6 13
5 21 4 18 -1 -3 -5 5 -8 19 -7 14 0 25 4 25 8 0 4 14 2 32 -4 24 -9 33 -8 36
0 2 8 9 9 21 2 10 -5 21 -6 25 -3 3 3 6 -1 6 -9 0 -11 6 -14 20 -11 12 3 20 0
20 -6 0 -7 4 -10 9 -6 5 3 17 -3 27 -12 11 -11 13 -18 5 -21 -6 -2 -8 -9 -5
-15 5 -8 2 -8 -7 1 -16 15 -33 16 -23 1 4 -7 -1 -7 -16 1 -15 8 -20 8 -16 1 8
-13 -29 -10 -41 4 -5 4 -2 5 6 0 10 -6 12 -4 6 5 -6 10 -10 10 -20 -3 -9 -13
-14 -14 -25 -4 -10 9 -11 9 -6 0 4 -7 3 -13 -3 -13 -5 0 -15 8 -20 18 -10 16
-10 16 -11 0 0 -21 -16 -32 -26 -17 -5 8 -3 9 7 4 8 -5 10 -4 6 0 -12 14 -37
15 -37 2 0 -7 -7 -3 -15 7 -13 17 -15 17 -15 4 0 -22 -16 -32 -26 -17 -5 8 -3
9 6 4 8 -5 11 -4 6 3 -3 6 -18 8 -33 6 -60 -11 -133 -11 -133 0 0 6 -5 4 -10
-4 -5 -8 -10 -10 -10 -5 0 17 -40 12 -40 -5 -1 -12 -3 -12 -11 3 -5 9 -15 17
-20 17 -6 0 -8 -3 -6 -7 3 -5 -28 -8 -69 -8 -44 -1 -74 3 -74 10 0 5 -5 3 -10
-5 -5 -8 -10 -10 -10 -5 0 17 -40 12 -40 -5 -1 -12 -3 -12 -11 3 -5 9 -15 17
-20 17 -6 0 -8 -3 -6 -7 5 -9 -101 -8 -145 0 -22 4 -26 2 -22 -11 4 -11 -1 -9
-15 7 -16 17 -21 19 -21 8 0 -21 -17 -31 -26 -16 -5 8 -3 9 7 4 8 -5 10 -4 6
0 -12 14 -37 15 -37 2 0 -7 -7 -3 -15 7 -13 17 -15 17 -15 4 0 -22 -16 -32
-26 -17 -5 8 -3 9 7 4 8 -5 10 -4 6 0 -12 14 -37 15 -37 2 0 -7 -7 -3 -15 7
-13 17 -15 17 -15 4 0 -22 -16 -32 -26 -17 -5 8 -3 9 7 4 8 -5 10 -4 6 0 -12
14 -37 15 -37 2 0 -7 -7 -3 -15 7 -13 17 -15 17 -15 4 0 -22 -16 -32 -26 -17
-5 8 -3 9 7 4 8 -5 11 -4 6 1 -14 15 -67 11 -67 -6 -1 -12 -2 -12 -11 3 -5 9
-15 17 -20 17 -6 0 -8 -3 -6 -7 3 -5 -28 -8 -69 -8 -44 -1 -74 3 -74 10 0 5
-5 3 -10 -5 -5 -8 -10 -10 -10 -5 0 6 -9 11 -20 11 -14 0 -19 -5 -15 -15 5
-12 2 -11 -13 2 -19 18 -37 23 -28 9 3 -5 -1 -9 -9 -9 -8 0 -12 4 -10 8 3 4
-3 6 -12 4 -10 -2 -22 -4 -27 -4 -4 -1 -6 -10 -3 -21 3 -11 2 -20 -1 -20 -4 0
-6 -18 -6 -40 1 -22 -2 -40 -7 -40 -5 0 -9 9 -9 19 0 11 -6 22 -12 24 -10 4
-10 6 0 6 6 1 12 8 12 16 0 8 -6 15 -12 15 -9 0 -8 3 2 10 13 8 12 12 -4 27
-10 10 -16 13 -12 6 3 -6 2 -14 -4 -18 -5 -3 -10 -2 -10 4 0 6 -6 8 -14 5 -9
-3 -12 -12 -9 -21 4 -9 2 -14 -3 -10 -5 3 -10 -3 -10 -14 0 -10 4 -19 8 -19 5
0 5 -8 0 -17 -5 -10 -7 -24 -5 -31 3 -8 -1 -10 -11 -6 -9 3 -16 1 -16 -6 0 -7
-6 -6 -16 4 -20 21 -25 20 -17 -1 6 -16 5 -16 -10 -4 -9 7 -17 10 -17 7 0 -4
-10 -1 -22 5 -21 11 -22 11 -9 -5 13 -15 12 -16 -10 -8 -13 5 -34 6 -46 1 -13
-5 -25 -4 -28 1 -4 7 -13 6 -26 0 -14 -8 -19 -7 -19 2 0 10 -2 10 -8 1 -5 -8
-13 -9 -22 -3 -8 5 -21 5 -32 -1 -13 -7 -18 -6 -18 2 0 8 -4 9 -13 0 -10 -8
-17 -7 -25 1 -9 9 -12 9 -12 1 0 -7 5 -15 10 -18 6 -4 7 -11 4 -17 -4 -7 0 -7
12 -1 29 14 89 10 86 -5 -1 -8 2 -11 8 -7 6 3 8 10 6 13 -6 9 41 8 51 -1 3 -4
12 -2 20 4 9 9 13 8 13 0 0 -6 5 -11 11 -11 5 0 7 5 3 12 -5 7 -3 8 7 2 18
-11 40 -14 35 -5 -7 10 26 7 43 -4 10 -5 12 -4 7 3 -4 7 -2 12 3 12 6 0 11 -4
11 -9 0 -5 8 -8 17 -7 10 2 23 -3 30 -10 14 -14 18 -28 5 -20 -4 2 -8 -4 -8
-15 0 -10 4 -19 9 -19 5 0 4 -7 -3 -15 -9 -11 -9 -15 -1 -15 7 0 10 -4 6 -9
-3 -6 2 -14 11 -19 18 -10 57 14 48 30 -3 4 2 5 10 2 19 -7 21 -20 4 -30 -7
-5 -8 -3 -3 6 5 9 4 11 -4 6 -6 -4 -9 -12 -5 -17 3 -5 10 -7 15 -4 5 4 9 2 9
-3 0 -11 51 -10 69 2 9 6 12 5 7 -2 -3 -6 -2 -13 4 -17 5 -3 10 -2 10 2 0 5
46 8 103 8 56 -1 108 3 115 8 9 7 11 5 6 -8 -6 -14 -4 -16 7 -9 19 12 59 12
59 0 0 -5 7 -1 16 10 8 10 13 14 10 8 -3 -7 34 -10 117 -9 67 1 130 -2 140 -7
10 -5 17 -5 17 1 0 5 14 7 31 4 24 -3 29 -1 24 9 -6 10 -5 10 5 1 7 -6 19 -9
26 -6 8 3 14 -1 14 -8 0 -11 3 -11 10 1 5 8 10 11 10 6 0 -5 7 -3 15 4 13 11
14 10 9 -5 -6 -14 -4 -16 7 -9 20 12 328 12 322 -1 -2 -5 2 -2 10 8 10 12 16
14 19 6 4 -13 38 -22 38 -10 0 4 9 7 20 8 13 1 18 -2 13 -10 -4 -7 0 -6 10 2
9 7 17 10 17 6 0 -4 8 -1 17 6 9 8 14 9 10 3 -7 -13 151 -13 172 0 9 6 12 5 7
-2 -8 -13 92 -11 114 3 8 5 11 4 7 -2 -4 -6 2 -13 13 -16 11 -3 18 -1 15 3 -3
5 4 8 15 7 11 -1 20 -4 20 -7 0 -4 7 -7 15 -7 8 0 15 3 15 7 0 4 30 6 66 5 36
-1 68 3 70 7 3 5 11 5 17 0 7 -5 22 -8 34 -7 14 1 23 -5 26 -17 4 -15 1 -18
-15 -12 -14 4 -18 2 -14 -5 5 -7 1 -9 -8 -5 -9 3 -16 10 -16 15 0 5 -5 9 -11
9 -6 0 -9 -7 -5 -15 4 -12 0 -12 -21 2 -26 17 -27 17 -20 0 5 -14 3 -16 -11
-9 -20 10 -32 10 -49 -1 -9 -6 -11 -3 -6 10 6 15 4 16 -9 5 -8 -7 -24 -9 -33
-5 -13 4 -16 3 -10 -6 6 -10 3 -11 -13 -2 -14 8 -23 8 -27 1 -5 -8 -11 -7 -22
1 -20 17 -65 18 -58 2 3 -10 0 -11 -13 -5 -20 10 -32 10 -49 -1 -9 -6 -11 -3
-7 7 3 9 1 16 -5 16 -6 0 -11 -7 -11 -16 0 -14 -2 -14 -16 1 -11 11 -20 13
-27 6 -5 -5 -16 -7 -25 -4 -11 5 -13 3 -7 -8 5 -9 1 -7 -11 3 -16 14 -23 15
-32 6 -9 -9 -12 -9 -12 1 0 7 -5 9 -10 6 -6 -4 -7 -12 -3 -18 3 -7 -4 -3 -17
8 -13 11 -21 15 -17 9 4 -6 -13 -10 -48 -9 -32 1 -52 -2 -48 -8 3 -5 -4 -4
-14 2 -11 6 -23 8 -26 4 -3 -3 -14 -2 -24 2 -31 13 -64 12 -58 -2 3 -11 0 -11
-15 -3 -11 6 -20 8 -20 4 0 -3 -6 -1 -14 5 -11 9 -16 9 -22 0 -5 -8 -3 -9 6
-4 9 5 11 4 6 -4 -6 -9 -11 -9 -22 0 -8 6 -14 8 -14 5 0 -4 -9 -2 -20 4 -11 6
-20 7 -20 3 0 -9 -57 -9 -66 -1 -3 3 -23 1 -45 -4 -32 -9 -37 -13 -27 -25 6
-8 7 -13 2 -11 -5 2 -10 -1 -11 -6 -1 -10 -24 -26 -36 -26 -5 0 -5 6 -1 13 5
9 4 9 -6 0 -8 -7 -21 -9 -35 -3 -12 4 -28 4 -35 0 -8 -5 -18 -6 -24 -3 -5 3
-6 2 -3 -3 16 -27 -46 -51 -84 -33 -8 4 -21 4 -29 -1 -8 -5 -22 -4 -32 1 -11
6 -18 6 -18 0 0 -5 -12 -8 -27 -6 -16 2 -37 -4 -47 -13 -11 -10 -16 -11 -12
-4 6 10 1 11 -21 5 -15 -4 -40 -7 -55 -7 -16 -1 -28 -1 -29 -1 0 0 -2 -19 -5
-41 -4 -33 -2 -43 11 -48 9 -3 22 -3 27 1 7 3 8 1 4 -5 -4 -7 -2 -12 4 -12 6
0 8 -4 5 -10 -3 -5 1 -10 10 -10 11 0 15 -5 12 -14 -8 -20 3 -27 24 -15 13 7
19 6 19 -1 0 -6 5 -8 10 -5 6 3 10 -1 10 -9 0 -9 5 -16 12 -16 6 0 3 -7 -8
-16 -10 -8 -14 -13 -9 -11 6 3 16 -1 23 -9 7 -8 9 -14 5 -14 -5 0 -7 -20 -5
-45 2 -25 9 -45 14 -45 6 0 4 -8 -3 -17 -10 -11 -10 -14 -1 -9 7 4 12 2 12 -5
0 -8 4 -8 13 -1 8 7 18 7 27 2 8 -5 19 -6 25 -2 5 4 18 7 28 8 9 1 22 2 28 3
6 0 8 8 5 18 -7 18 10 34 30 26 7 -2 11 -15 8 -29 -3 -16 1 -27 11 -31 9 -3
14 -12 11 -20 -3 -8 -1 -11 4 -8 6 3 10 0 10 -8 0 -9 11 -14 30 -15 17 0 28 4
25 9 -10 14 0 11 23 -10 23 -20 30 -47 10 -35 -10 5 -10 4 -1 -6 9 -10 9 -17
0 -32 -10 -15 -9 -21 3 -28 11 -7 12 -10 2 -10 -10 0 -10 -4 2 -16 20 -20 20
-28 1 -20 -13 5 -13 2 1 -19 13 -20 14 -25 3 -25 -11 0 -11 -2 1 -10 12 -8 12
-10 1 -10 -11 0 -11 -3 -1 -15 7 -8 16 -13 20 -10 5 3 6 -8 4 -25 -3 -16 -2
-30 3 -30 5 0 14 -9 21 -21 8 -12 9 -18 4 -15 -6 3 -13 -1 -16 -10 -4 -10 -2
-13 6 -8 8 5 9 2 5 -9 -4 -10 -1 -17 6 -17 8 0 6 -4 -3 -10 -8 -5 -10 -10 -3
-10 6 0 10 -13 9 -30 -1 -16 2 -30 8 -30 5 0 7 -3 3 -6 -11 -11 23 -36 40 -30
8 4 21 2 28 -4 14 -12 37 -10 47 5 8 11 61 -39 64 -61 1 -8 -5 -19 -14 -24
-14 -9 -13 -10 6 -5 12 4 22 2 22 -3 0 -5 -30 -10 -67 -11 -38 -1 -84 -2 -103
-3 l-35 -1 5 -79 c3 -43 2 -78 -1 -78 -3 0 -4 -11 -1 -25 2 -15 0 -25 -7 -25
-6 0 -11 6 -11 13 0 7 -3 8 -8 2 -11 -16 -52 -18 -52 -3 -1 7 -7 0 -14 -17 -7
-16 -11 -34 -7 -40 3 -5 5 -29 3 -51 l-2 -41 43 2 c23 2 45 -2 49 -9 6 -8 8
-8 8 2 0 6 5 12 11 12 5 0 7 -4 4 -10 -3 -5 2 -10 12 -11 10 0 13 -3 6 -6 -7
-2 -13 -14 -13 -24 0 -11 5 -17 10 -14 6 3 10 0 10 -7 0 -10 2 -10 9 1 6 9 11
10 15 2 5 -7 13 -8 25 -1 10 5 21 7 24 4 10 -10 77 -10 77 0 0 4 6 4 13 -2 7
-6 19 -7 26 -3 7 5 28 5 47 1 21 -5 34 -4 34 2 0 7 4 7 13 0 7 -6 19 -7 26 -3
7 5 28 5 47 1 21 -5 34 -4 34 2 0 7 4 7 13 0 8 -7 18 -7 27 -2 9 5 19 5 27 -2
9 -7 13 -7 13 2 0 9 4 9 13 2 7 -6 19 -7 26 -3 7 5 28 5 47 1 21 -5 34 -4 34
2 0 7 4 7 13 0 7 -6 19 -7 26 -3 7 5 28 5 47 1 21 -5 34 -4 34 2 0 7 4 7 13 0
7 -6 19 -7 26 -3 7 5 28 5 47 1 23 -5 34 -4 34 3 0 8 4 7 12 -1 8 -8 17 -8 30
-1 16 9 19 7 16 -9 -2 -10 4 -27 12 -37 8 -11 10 -16 3 -11 -8 4 -11 2 -7 -7
2 -7 11 -14 19 -14 8 0 12 5 9 11 -3 6 2 2 10 -8 9 -11 16 -15 16 -9 0 6 14 9
30 8 17 -1 30 2 30 9 0 6 6 0 14 -14 18 -34 11 -41 -35 -38 -21 1 -42 -1 -45
-5 -4 -4 -13 -2 -21 4 -7 6 -13 8 -13 3 0 -5 -35 -9 -77 -9 -71 0 -78 -2 -78
-20 0 -18 -7 -20 -68 -20 -38 -1 -71 3 -74 8 -3 4 -14 0 -26 -10 -11 -10 -18
-13 -14 -7 4 7 -24 10 -92 10 -55 -1 -97 -4 -94 -8 2 -5 -1 -8 -7 -8 -6 0 -9
-4 -6 -9 4 -5 -4 -7 -16 -3 -16 4 -19 2 -13 -9 8 -12 6 -12 -8 0 -9 7 -17 10
-17 6 0 -4 -8 -1 -17 6 -9 8 -14 9 -11 4 4 -7 -49 -10 -165 -10 -109 1 -177
-3 -186 -9 -11 -8 -13 -8 -8 0 4 8 -16 10 -66 9 -40 -1 -78 3 -86 9 -11 8 -13
8 -7 -1 5 -9 0 -13 -14 -13 -14 0 -19 4 -14 13 5 9 4 9 -6 0 -18 -17 -24 -56
-8 -48 7 4 2 -2 -12 -13 -18 -15 -28 -18 -37 -10 -8 6 -13 6 -13 1 0 -11 -36
-11 -46 0 -4 4 -13 2 -21 -4 -10 -9 -13 -8 -13 1 0 10 -3 10 -14 1 -10 -9 -16
-9 -21 -1 -5 8 -10 8 -20 0 -8 -7 -15 -7 -19 -1 -4 6 -18 6 -36 1 -20 -6 -30
-5 -30 2 0 6 -6 6 -15 -2 -18 -15 -20 -34 -2 -24 9 6 9 4 1 -7 -15 -20 -16
-61 -1 -52 9 5 9 3 0 -8 -7 -8 -10 -28 -7 -43 3 -21 1 -26 -8 -20 -7 4 -4 -3
7 -16 11 -13 14 -20 8 -16 -17 9 -17 -16 0 -33 10 -11 9 -12 -3 -6 -12 6 -13
5 -3 -5 10 -11 15 -11 29 1 10 8 15 9 11 3 -4 -7 0 -15 9 -18 8 -3 12 -2 9 4
-3 6 0 10 9 10 8 0 17 -6 19 -12 4 -10 6 -10 6 -1 1 7 8 10 18 6 11 -5 14 -3
8 6 -6 10 -3 11 14 2 11 -7 21 -9 21 -6 0 3 10 0 23 -6 21 -12 21 -11 7 6 -14
17 -13 18 5 9 11 -6 30 -9 43 -8 19 1 23 -3 19 -17 -3 -11 -1 -22 4 -25 5 -3
7 -9 4 -13 -2 -5 9 -7 26 -5 21 3 28 0 23 -8 -5 -7 -3 -8 7 -2 18 11 60 13 53
2 -3 -4 1 -8 8 -8 10 0 10 -2 -1 -9 -10 -7 -10 -10 -1 -16 20 -12 70 -14 70
-2 0 6 6 2 14 -8 13 -18 13 -18 24 1 6 10 12 14 12 8 0 -7 13 -10 33 -9 17 2
38 -2 46 -8 11 -9 13 -9 8 0 -6 9 6 11 47 9 34 -2 57 1 60 8 3 7 5 6 5 -2 1
-7 6 -10 11 -7 6 3 10 0 10 -7 0 -9 3 -9 10 2 5 8 10 11 10 6 0 -5 8 -2 17 5
12 10 15 11 9 1 -6 -10 -1 -11 19 -6 18 4 30 2 36 -7 5 -9 9 -10 9 -2 0 7 17
10 50 9 31 -2 50 1 50 8 0 8 2 8 8 0 9 -14 43 -15 60 -1 7 5 12 6 12 0 0 -5
-6 -15 -12 -23 -7 -8 -4 -7 7 2 20 17 63 19 57 3 -2 -4 2 -12 10 -16 10 -7 8
-9 -7 -10 l-20 0 20 -9 c18 -7 19 -8 3 -15 -10 -4 -15 -12 -11 -19 5 -8 3 -8
-8 0 -8 6 -58 10 -121 9 -73 -1 -105 2 -101 9 4 6 -4 2 -17 -9 -15 -14 -24
-16 -27 -8 -2 7 -10 10 -16 7 -9 -3 -11 -75 -9 -284 3 -274 3 -280 23 -280 13
0 18 -4 13 -12 -4 -7 2 -5 13 5 11 9 23 14 26 10 11 -11 186 -10 180 1 -4 5
-1 6 8 1 19 -13 89 -13 89 -1 0 5 7 1 16 -10 8 -10 13 -14 10 -7 -4 7 1 9 13
6 16 -4 17 -10 11 -39 -5 -20 -4 -37 2 -40 5 -3 5 -11 -2 -19 -8 -9 -8 -15 0
-20 18 -11 1 -24 -26 -19 -13 2 -35 -2 -47 -11 -12 -8 -17 -15 -11 -15 6 0 9
-17 8 -39 -2 -33 1 -38 17 -34 12 3 19 0 19 -8 1 -9 4 -8 11 4 7 12 15 15 22
9 7 -5 20 -8 30 -7 16 3 18 -5 16 -96 -1 -54 -5 -99 -10 -99 -5 0 -9 6 -9 13
0 7 -3 8 -8 2 -6 -9 -27 -11 -42 -5 -19 7 -39 7 -34 -1 9 -15 -8 -10 -28 8
-16 14 -18 14 -13 1 5 -12 0 -15 -19 -13 -28 3 -43 -9 -25 -21 8 -4 7 -9 -2
-15 -12 -8 -12 -10 0 -18 10 -6 11 -13 2 -27 -8 -14 -11 -15 -11 -4 0 13 -1
13 -10 0 -9 -13 -10 -13 -10 0 0 13 -2 13 -9 1 -8 -13 -12 -13 -27 0 -15 12
-17 12 -9 0 6 -11 4 -13 -8 -8 -9 3 -18 1 -21 -6 -3 -9 -5 -9 -5 1 -1 18 -28
15 -40 -5 -6 -10 -11 -13 -11 -8 0 6 -4 17 -10 25 -7 12 -12 11 -31 -5 -12
-11 -19 -14 -15 -7 6 9 -1 11 -27 8 -19 -2 -40 0 -48 4 -9 6 -21 3 -33 -8 -11
-9 -17 -12 -13 -6 4 7 -13 11 -53 10 -32 0 -56 -4 -54 -8 3 -5 11 -5 17 -1 7
4 6 0 -2 -10 -15 -18 -26 -23 -16 -7 3 5 1 10 -4 10 -6 0 -11 -4 -11 -9 0 -5
-21 -8 -47 -6 -27 1 -51 -2 -55 -9 -5 -7 -8 -7 -8 3 0 10 -3 11 -14 2 -11 -9
-16 -9 -22 0 -5 8 -3 9 6 4 9 -5 11 -4 6 4 -4 6 -13 8 -19 4 -7 -4 -24 -8 -39
-9 -46 -2 -49 -4 -43 -14 3 -5 -1 -10 -9 -10 -9 0 -16 -4 -16 -8 0 -11 -31 -9
-49 3 -10 6 -12 4 -6 -5 6 -10 4 -12 -7 -7 -19 7 -82 -45 -70 -58 4 -4 0 -6
-9 -3 -9 4 -20 -2 -27 -13 -8 -12 -18 -16 -29 -12 -12 5 -14 3 -8 -7 6 -10 2
-12 -19 -8 -14 3 -29 1 -32 -3 -3 -5 -15 -4 -26 2 -18 10 -20 9 -15 -5 5 -13
3 -15 -12 -7 -10 6 -21 7 -25 3 -4 -3 -11 0 -16 8 -6 8 -10 10 -10 4 0 -6 -11
-11 -25 -11 -14 0 -25 5 -25 11 0 7 -3 8 -8 1 -9 -13 -72 -14 -72 -2 0 5 -7 4
-15 -3 -8 -7 -15 -9 -15 -6 0 4 -7 1 -15 -8 -8 -8 -15 -20 -15 -26 0 -6 -4 -9
-9 -6 -5 3 -11 -1 -14 -9 -4 -9 -1 -12 9 -8 8 3 14 2 13 -3 -4 -25 3 -44 16
-44 8 0 15 -6 15 -12 0 -9 4 -8 10 2 8 12 10 12 10 -5 0 -17 2 -17 10 -5 5 8
10 11 10 7 0 -4 10 -3 21 4 12 6 19 7 15 1 -3 -5 3 -12 14 -15 11 -3 18 -1 15
3 -8 12 37 9 54 -4 12 -9 13 -8 6 3 -6 11 -4 13 8 8 10 -4 17 -1 17 6 0 9 3 9
9 -1 9 -14 32 -13 43 3 5 6 8 5 8 -3 0 -7 5 -10 11 -6 6 3 15 0 20 -7 5 -8 9
-9 9 -3 0 13 45 12 57 0 4 -5 2 -6 -4 -2 -7 4 -13 2 -13 -3 0 -6 5 -11 11 -11
5 0 7 -4 4 -10 -3 -5 1 -10 9 -10 8 0 27 -12 41 -27 21 -24 27 -26 35 -13 9
15 11 13 14 -12 0 -7 6 -13 11 -13 6 0 15 -4 22 -8 6 -4 14 -3 18 3 6 9 43 -5
56 -23 3 -4 16 -6 30 -3 13 2 30 -2 38 -8 11 -8 13 -8 8 0 -5 8 16 11 68 9 41
-1 72 1 69 6 -3 5 2 6 10 3 9 -3 16 -12 16 -19 0 -10 7 -11 30 -5 17 5 30 5
30 0 0 -5 13 -5 29 0 16 4 32 5 35 2 9 -8 46 -10 46 -2 0 9 32 6 48 -4 7 -4
12 -2 12 5 0 7 4 8 13 2 14 -11 27 -11 45 0 7 5 12 4 12 -2 0 -7 8 -7 25 -1
13 5 27 5 29 1 3 -5 19 -7 36 -5 16 2 29 0 29 -4 -1 -4 -1 -15 0 -26 1 -16 3
-17 18 -5 13 11 15 11 9 1 -10 -16 25 -13 36 3 5 6 8 6 8 -1 0 -6 11 -11 25
-11 14 0 25 4 25 9 0 5 7 2 16 -6 18 -19 28 -21 18 -4 -5 8 -2 9 9 5 10 -4 17
-1 17 6 0 8 3 9 8 1 4 -6 16 -11 27 -11 11 0 23 5 27 11 6 8 8 8 8 0 0 -6 11
-11 25 -11 14 0 25 4 25 9 0 5 5 6 11 2 18 -11 99 -10 99 1 0 7 3 7 8 0 8 -12
52 -13 70 -2 6 5 12 4 12 -1 0 -13 63 -10 72 3 5 7 8 7 8 0 0 -12 50 -13 68
-2 6 5 12 4 12 -1 0 -13 63 -10 72 3 5 7 8 7 8 0 0 -12 50 -13 68 -2 6 5 12 4
12 -1 0 -11 49 -10 68 1 6 5 12 4 12 -2 0 -5 12 -9 28 -7 15 2 36 0 47 -5 11
-4 15 -8 8 -8 -6 -1 -14 -9 -16 -18 -4 -14 -5 -13 -6 4 -1 20 -4 21 -28 12
-20 -7 -29 -7 -31 1 -3 7 -9 7 -20 -2 -12 -11 -16 -11 -20 0 -3 10 -7 10 -20
0 -12 -11 -16 -11 -20 0 -3 10 -7 10 -19 1 -11 -10 -16 -10 -23 0 -10 17 -47
5 -53 -17 -3 -12 -5 -11 -6 5 -1 20 -4 21 -28 12 -20 -7 -29 -7 -31 1 -3 8 -8
7 -19 -1 -11 -10 -16 -10 -23 0 -10 17 -47 5 -53 -17 -3 -12 -5 -11 -6 5 -1
20 -4 21 -28 12 -20 -7 -29 -7 -31 1 -3 8 -8 7 -19 -1 -11 -10 -16 -10 -23 0
-10 17 -47 5 -53 -17 -3 -12 -5 -10 -6 6 -1 20 -4 21 -21 12 -14 -7 -20 -7
-20 0 0 5 -5 10 -11 10 -5 0 -8 -4 -5 -8 3 -5 -1 -9 -9 -9 -8 0 -15 3 -15 7 0
4 -12 5 -28 2 -25 -3 -27 -7 -27 -47 0 -24 3 -47 8 -51 4 -4 0 -15 -9 -25 -12
-13 -12 -19 -3 -25 8 -5 10 -3 4 6 -5 9 -4 11 3 6 9 -5 7 -15 -5 -34 -9 -15
-13 -24 -9 -20 4 3 21 2 38 -2 25 -8 29 -7 23 7 -5 15 -4 15 13 0 20 -18 37
-23 28 -8 -4 5 1 8 10 7 8 -1 20 -9 25 -17 7 -11 9 -10 9 5 0 16 2 17 17 5 14
-12 16 -12 8 0 -6 11 -5 12 6 5 8 -5 21 -9 29 -9 8 0 21 -4 28 -8 7 -5 14 -2
18 7 5 12 10 13 26 5 11 -6 18 -7 15 -2 -3 5 3 10 14 10 10 1 19 -4 19 -10 0
-7 4 -6 10 3 6 10 10 11 10 3 0 -7 5 -13 10 -13 6 0 10 8 10 17 0 15 2 14 15
-3 10 -13 14 -15 15 -5 0 11 5 9 22 -5 12 -10 18 -14 15 -7 -4 6 -3 14 2 18 5
3 14 -3 20 -12 10 -17 10 -17 11 1 0 16 2 17 17 5 14 -12 16 -12 8 0 -6 11 -5
12 6 5 8 -5 21 -9 29 -9 8 0 21 -4 28 -8 7 -5 15 -2 19 9 6 16 7 15 20 -2 11
-16 13 -16 13 -1 0 14 4 15 26 7 14 -6 23 -6 20 -2 -3 5 1 9 9 9 8 0 12 -4 9
-9 -3 -4 0 -8 5 -8 6 0 11 8 11 17 0 15 2 14 15 -3 13 -18 14 -18 15 -1 0 15
2 16 14 5 8 -7 11 -17 8 -23 -3 -5 4 -2 15 8 14 12 23 15 28 7 4 -6 1 -9 -7
-8 -7 2 -12 -3 -10 -10 1 -7 -9 -17 -23 -24 -13 -6 -22 -15 -19 -19 3 -5 -7
-11 -21 -15 -14 -3 -22 -11 -18 -17 4 -6 1 -7 -8 -1 -22 14 -70 14 -62 1 4 -7
-1 -6 -10 2 -9 7 -17 10 -17 6 0 -4 -8 -1 -17 6 -12 10 -15 10 -9 1 6 -9 0
-11 -23 -7 -19 3 -31 1 -31 -5 0 -6 -5 -8 -11 -5 -5 4 -24 9 -41 12 -22 3 -28
1 -23 -8 5 -7 4 -10 -2 -6 -21 13 -68 16 -82 4 -12 -10 -14 -9 -8 6 5 13 3 16
-6 10 -19 -11 -70 -11 -86 1 -11 8 -13 8 -7 -2 6 -9 0 -11 -23 -7 -19 3 -31 1
-31 -5 0 -6 -5 -8 -12 -4 -15 9 -109 14 -104 5 2 -3 0 -16 -5 -28 -5 -15 -14
-20 -27 -16 -11 2 -23 -1 -27 -8 -5 -8 -4 -10 3 -5 7 4 12 2 12 -3 0 -6 -4
-11 -10 -11 -5 0 -10 -9 -10 -21 0 -13 4 -18 13 -13 6 4 3 -3 -8 -16 -11 -13
-15 -20 -9 -17 7 4 15 0 18 -9 3 -8 2 -13 -3 -10 -5 3 -11 -3 -14 -14 -3 -11
-13 -20 -22 -20 -10 0 -13 5 -9 13 4 6 -3 3 -16 -8 -13 -11 -20 -14 -15 -6 6
10 2 12 -15 6 -17 -6 -21 -4 -15 6 5 8 -2 5 -15 -6 -13 -11 -20 -15 -17 -9 4
7 0 15 -9 18 -10 4 -13 2 -8 -6 5 -8 2 -9 -9 -5 -10 3 -17 2 -17 -4 0 -6 -7
-3 -16 6 -10 10 -20 12 -28 7 -15 -13 -49 -11 -58 2 -5 8 -8 7 -8 -1 0 -7 -7
-10 -17 -6 -11 4 -14 3 -9 -5 5 -8 2 -10 -8 -6 -9 3 -13 10 -10 16 3 5 -3 4
-14 -3 -12 -7 -18 -17 -16 -21 3 -4 2 -8 -3 -8 -10 0 -4 -92 8 -104 5 -5 14
-4 23 3 11 9 16 9 22 0 5 -8 3 -9 -6 -4 -9 6 -11 4 -5 -4 5 -9 10 -10 18 -2
14 14 40 14 31 0 -5 -8 -1 -8 13 0 11 6 23 8 26 4 4 -3 13 0 21 6 11 10 16 9
24 -5 5 -9 12 -12 15 -7 3 5 24 8 47 6 31 -2 39 0 34 9 -5 9 -2 9 9 -1 13 -10
20 -11 31 -2 11 9 16 9 22 0 5 -8 3 -9 -6 -4 -9 5 -11 4 -6 -3 4 -8 14 -9 24
-4 9 4 34 7 55 5 27 -1 36 1 30 10 -5 9 -3 9 8 0 9 -7 25 -11 37 -8 12 2 24
-1 28 -6 4 -6 14 -3 27 8 11 10 17 13 14 7 -4 -7 3 -14 18 -16 13 -3 22 -1 19
3 -8 13 20 11 33 -2 8 -8 13 -7 18 2 6 8 4 10 -5 4 -9 -6 -11 -4 -5 4 5 9 11
9 17 3 6 -6 17 -8 26 -5 11 5 13 3 7 -7 -6 -10 -4 -11 6 -4 19 12 59 13 59 2
0 -5 4 -7 8 -4 4 2 8 -4 8 -14 0 -10 -3 -17 -6 -15 -4 2 -7 -2 -7 -10 0 -8 3
-12 7 -10 9 6 4 -45 -6 -53 -4 -4 -4 2 -1 13 6 17 5 18 -5 5 -14 -17 -65 -20
-87 -6 -10 6 -12 6 -7 -2 4 -7 1 -12 -8 -12 -8 0 -18 5 -21 11 -5 7 -14 4 -28
-8 -11 -10 -17 -13 -14 -7 4 7 0 15 -9 18 -8 3 -12 2 -9 -4 7 -12 -23 -9 -44
4 -11 7 -13 5 -8 -8 5 -11 3 -15 -5 -10 -6 4 -24 8 -40 10 -21 3 -27 0 -21 -9
4 -6 -6 -4 -21 7 -16 10 -26 14 -23 9 4 -6 -11 -10 -33 -10 -22 0 -37 4 -33
10 3 5 -2 5 -13 -1 -11 -5 -25 -7 -33 -4 -10 3 -11 0 -5 -9 5 -9 -2 -7 -20 5
-16 10 -26 14 -23 9 4 -6 -11 -10 -33 -10 -26 0 -37 4 -33 11 3 6 0 5 -8 -1
-17 -16 -43 -17 -33 -1 4 6 3 8 -3 5 -5 -3 -8 -29 -7 -57 3 -35 0 -50 -9 -50
-9 0 -8 -3 1 -9 8 -4 12 -15 10 -22 -2 -8 -1 -15 2 -15 3 0 15 -6 28 -13 15
-8 22 -8 22 -1 0 8 6 8 20 0 11 -6 20 -7 20 -2 0 10 30 9 47 -1 6 -4 15 -3 18
3 5 8 12 7 22 -2 19 -16 17 -16 36 0 8 7 17 9 20 5 6 -9 110 -9 125 1 6 3 14
2 17 -4 5 -8 11 -7 21 1 11 9 14 9 14 -1 0 -10 3 -10 15 0 11 9 15 9 15 1 0
-8 5 -9 19 -1 13 7 22 7 26 0 4 -7 12 -7 25 0 13 7 21 7 25 0 5 -8 11 -7 21 1
11 9 14 9 14 -1 0 -10 3 -10 15 0 11 9 15 9 15 1 0 -8 5 -9 18 -2 14 7 25 6
39 -4 11 -8 23 -12 26 -8 4 3 3 -7 -1 -23 -6 -26 -7 -41 -3 -80 1 -14 43 -13
53 1 5 6 8 5 8 -4 0 -8 7 -11 18 -9 11 3 19 0 19 -8 0 -7 -4 -11 -9 -8 -4 3
-8 0 -8 -5 0 -6 -7 -11 -15 -11 -8 0 -15 -4 -15 -8 0 -13 -30 -10 -30 2 0 6
-5 3 -11 -7 -8 -13 -14 -15 -30 -7 -10 6 -19 8 -19 4 0 -3 -8 0 -17 7 -14 11
-15 11 -9 1 6 -10 3 -13 -10 -10 -11 2 -18 10 -16 18 2 10 0 11 -11 2 -8 -7
-17 -9 -21 -5 -4 4 -11 1 -16 -7 -8 -13 -11 -13 -22 -1 -11 11 -11 13 1 6 10
-6 12 -4 7 4 -6 9 -11 9 -22 0 -10 -8 -17 -7 -29 5 -17 17 -40 22 -31 7 4 -5
-4 -7 -16 -3 -12 3 -19 1 -15 -4 3 -6 -3 -10 -13 -11 -11 -1 -19 3 -17 10 1 6
-7 11 -18 12 -11 0 -25 3 -31 7 -10 7 -68 -36 -62 -45 2 -3 -1 -9 -5 -14 -5
-4 -7 -1 -5 7 2 8 -3 14 -9 12 -7 -1 -13 6 -13 15 -1 17 -2 16 -15 -1 -8 -10
-12 -24 -8 -29 4 -6 0 -8 -10 -4 -9 3 -16 3 -16 -1 3 -21 -3 -24 -16 -6 -13
17 -14 17 -15 2 0 -9 -5 -20 -12 -24 -8 -5 -9 -1 -5 12 6 17 6 17 -5 3 -15
-18 -64 -46 -54 -31 3 5 -1 13 -10 16 -10 4 -13 2 -8 -7 5 -7 0 -5 -11 3 -10
8 -21 13 -24 11 -14 -9 -27 -38 -29 -65 -1 -17 -7 -33 -13 -37 -8 -4 -7 -8 2
-12 9 -4 10 -8 4 -14 -13 -10 -19 -47 -7 -39 13 8 10 -27 -3 -36 -6 -5 -5 -8
3 -8 7 0 12 -8 11 -17 -1 -10 -1 -25 0 -33 1 -13 2 -13 11 0 5 8 10 10 10 4 0
-6 7 -11 15 -11 8 0 15 4 15 8 0 5 7 6 16 2 9 -3 20 0 25 8 7 11 9 11 9 -3 0
-10 7 -15 18 -13 9 2 20 4 24 4 3 1 3 13 -1 28 -5 16 -13 27 -19 26 -6 -2 -9
4 -6 12 4 8 10 15 15 15 5 0 9 20 9 44 0 25 5 48 10 51 6 3 10 1 10 -5 0 -6 3
-9 8 -7 4 3 13 -1 20 -9 10 -11 10 -14 0 -14 -9 0 -9 -3 2 -10 13 -9 13 -11 0
-21 -11 -8 -12 -12 -2 -16 6 -2 12 -9 12 -14 0 -6 -5 -7 -12 -3 -7 5 -8 3 -2
-7 13 -21 14 -39 1 -39 -7 0 -5 -5 3 -10 13 -9 13 -10 0 -10 -12 -1 -11 -3 3
-11 9 -6 15 -14 12 -20 -4 -5 1 -9 9 -9 9 0 16 -6 16 -12 0 -10 3 -9 9 1 12
18 24 -2 25 -43 1 -24 5 -30 19 -28 10 2 17 -3 17 -12 0 -12 5 -14 26 -6 15 6
23 6 19 1 -3 -5 -1 -12 5 -16 5 -3 10 1 10 9 0 12 5 14 26 6 14 -6 23 -6 20
-2 -3 5 1 9 9 9 8 0 12 -4 9 -9 -3 -4 0 -8 5 -8 6 0 11 8 11 17 0 15 2 14 15
-3 11 -14 15 -16 15 -4 0 12 4 10 15 -4 13 -17 15 -18 15 -3 0 9 5 17 11 17 5
0 8 -4 5 -8 -2 -4 8 -8 23 -7 21 0 27 4 24 15 -2 8 2 4 10 -9 13 -22 15 -23
18 -6 4 18 5 18 22 1 14 -14 15 -21 6 -32 -10 -12 -9 -13 5 -8 9 3 16 1 16 -5
0 -6 7 -8 17 -4 12 5 14 3 8 -7 -6 -9 -4 -11 6 -5 15 10 88 14 87 6 -2 -24 4
-41 12 -36 6 3 10 1 10 -5 0 -6 4 -8 10 -5 6 3 10 1 10 -5 0 -6 5 -8 10 -5 6
4 7 12 4 18 -3 7 5 -1 19 -16 15 -17 28 -24 32 -17 3 6 11 7 17 4 13 -8 127
-8 135 0 3 3 12 1 20 -5 10 -9 13 -8 13 2 0 9 3 10 8 4 9 -12 52 -15 52 -3 0
5 6 3 14 -4 15 -14 11 -32 -5 -22 -5 3 -8 1 -7 -4 2 -6 -1 -10 -7 -10 -5 0 -9
4 -7 9 1 5 -7 4 -17 -3 -15 -9 -23 -9 -37 3 -10 8 -15 9 -11 3 4 -8 -15 -11
-66 -9 -40 1 -77 -2 -84 -7 -7 -6 -14 -4 -19 3 -5 8 -3 9 6 4 9 -6 11 -4 6 4
-6 9 -13 8 -29 -6 -11 -10 -17 -12 -13 -6 5 10 -2 12 -26 9 -18 -2 -39 1 -45
6 -9 7 -15 6 -19 -5 -6 -17 -33 -12 -46 7 -6 8 -8 8 -8 0 0 -6 -17 -10 -40 -9
-22 1 -40 -3 -40 -8 0 -6 -6 -2 -14 8 -13 18 -13 18 -24 -1 -6 -10 -12 -14
-12 -8 0 7 -13 10 -32 9 -18 -2 -39 2 -47 8 -11 9 -13 9 -8 0 6 -9 -6 -11 -48
-9 -35 2 -55 -1 -55 -8 0 -6 -5 -3 -11 7 -10 17 -12 17 -29 2 -10 -9 -21 -12
-24 -7 -6 10 -68 8 -85 -2 -6 -4 -11 -2 -11 5 0 7 -6 4 -14 -6 -12 -17 -16
-17 -30 -5 -10 7 -16 9 -14 4 2 -5 -1 -9 -7 -9 -5 0 -9 4 -7 9 2 5 -4 4 -12
-4 -9 -7 -16 -9 -16 -5 0 5 -10 0 -22 -11 -14 -13 -19 -14 -14 -4 4 8 1 7 -8
-4 -13 -16 -29 -18 -131 -17 -72 0 -114 -3 -110 -9 3 -6 -1 -7 -9 -4 -11 4
-16 0 -16 -11 0 -9 -4 -13 -10 -10 -6 3 -10 1 -10 -6 0 -7 -3 -9 -7 -6 -3 4
-12 2 -19 -4 -8 -7 -14 -7 -19 1 -4 7 -12 7 -26 0 -10 -6 -19 -8 -19 -4 0 3
-8 0 -17 -7 -9 -8 -14 -9 -10 -3 4 7 0 14 -8 18 -9 3 -15 0 -15 -9 0 -8 -5
-15 -11 -15 -5 0 -7 6 -4 13 4 6 1 5 -7 -3 -8 -10 -26 -14 -51 -12 -26 2 -37
-1 -35 -9 2 -10 -34 -18 -44 -9 -11 7 -38 6 -38 -1 0 -6 -4 -8 -9 -5 -5 4 -12
0 -14 -6 -4 -9 -6 -9 -6 -1 -1 6 -10 9 -21 6 -11 -3 -17 -10 -13 -16 4 -6 1
-7 -8 -1 -20 12 -39 14 -39 3 0 -6 -4 -7 -10 -4 -5 3 -10 -2 -10 -11 0 -16 -1
-16 -14 2 -18 23 -42 8 -25 -16 9 -13 10 -12 5 2 -6 21 9 24 17 4 3 -8 14 -13
24 -11 10 1 24 -3 32 -9 11 -8 13 -8 8 1 -5 8 0 11 13 10 11 -1 20 -5 20 -10
0 -4 5 -5 10 -2 6 3 10 1 10 -5 0 -6 5 -8 10 -5 6 3 10 1 10 -5 0 -8 6 -8 20
0 15 8 20 8 20 -1 0 -6 7 -8 15 -5 9 3 18 -1 22 -10 4 -11 17 -15 45 -12 30 2
44 -2 54 -17 10 -13 14 -15 14 -4 0 12 2 12 10 -1 9 -13 10 -13 10 0 0 13 2
13 9 1 5 -8 16 -11 25 -8 9 4 16 2 16 -4 0 -7 10 -9 23 -5 12 3 35 -1 51 -9
25 -13 27 -13 22 0 -4 13 -2 14 14 5 11 -6 25 -8 30 -5 6 3 10 -2 10 -12 0
-14 2 -15 9 -4 6 9 10 10 16 2 5 -9 10 -9 20 -1 8 7 18 9 24 6 5 -3 12 0 14 6
4 9 6 9 6 1 1 -6 10 -9 21 -6 12 3 20 0 20 -8 0 -8 5 -6 13 6 11 14 16 15 22
5 6 -9 4 -11 -5 -5 -9 6 -11 4 -5 -4 5 -8 11 -9 17 -3 5 5 19 7 30 4 11 -2 15
-8 10 -11 -6 -3 0 -11 14 -18 17 -8 26 -8 31 -1 4 7 1 8 -7 3 -9 -5 -11 -4 -6
4 6 9 11 9 22 0 10 -8 11 -14 4 -19 -7 -5 -6 -11 5 -20 8 -7 15 -8 15 -3 0 5
9 9 19 9 11 0 17 -4 15 -8 -3 -4 2 -8 11 -8 10 0 13 5 9 13 -5 8 -2 8 9 -2 13
-10 17 -10 17 -1 0 8 7 10 18 5 24 -9 122 -10 151 -1 14 5 21 4 18 -1 -4 -5 0
-10 8 -10 8 0 12 4 9 9 -6 10 25 6 44 -5 8 -6 12 -2 12 9 0 16 1 16 15 -2 10
-14 14 -15 15 -5 0 11 4 9 15 -5 9 -12 13 -13 10 -4 -4 11 1 16 14 16 11 0 18
-3 16 -6 -2 -3 7 -5 20 -5 13 0 21 4 18 9 -3 4 5 5 18 1 60 -17 62 -17 54 -5
-6 9 -2 9 15 0 18 -10 21 -9 15 1 -6 9 -3 10 11 5 19 -8 147 -10 212 -3 22 2
36 -2 42 -12 8 -14 9 -14 10 -1 0 12 9 15 41 12 33 -4 40 -2 34 9 -5 8 1 6 12
-4 11 -9 23 -14 28 -10 4 5 2 -2 -4 -15 -7 -14 -18 -21 -26 -18 -8 3 -20 0
-27 -7 -15 -14 -67 -16 -87 -3 -10 6 -12 6 -7 -2 5 -8 0 -11 -16 -8 -13 2 -29
-2 -37 -8 -11 -8 -13 -8 -8 0 4 7 -2 14 -13 17 -11 3 -23 1 -26 -5 -4 -6 -10
-5 -15 3 -5 9 -9 9 -9 3 0 -15 -72 -14 -82 0 -5 7 -8 8 -8 1 0 -6 -11 -12 -26
-13 -17 -1 -23 2 -18 10 5 7 3 8 -7 2 -20 -12 -39 -14 -39 -3 0 6 -5 7 -10 4
-6 -4 -8 -11 -5 -16 3 -5 -1 -6 -9 -3 -9 3 -14 10 -11 14 3 5 -3 7 -12 6 -9
-2 -19 -8 -21 -14 -2 -7 -8 -10 -12 -7 -5 3 -12 0 -16 -6 -4 -7 -3 -9 3 -6 14
9 14 -44 -1 -62 -8 -12 -8 -13 2 -7 16 10 16 -16 0 -33 -10 -11 -10 -13 0 -7
8 5 12 0 12 -14 0 -12 -4 -18 -10 -15 -6 3 -7 -1 -4 -9 3 -9 10 -13 15 -10 5
3 6 -2 3 -10 -3 -9 -10 -13 -15 -10 -5 3 -6 -2 -3 -10 3 -9 10 -14 14 -11 5 3
6 -4 3 -15 -3 -11 -9 -23 -14 -26 -5 -3 -9 -11 -9 -17 0 -7 4 -6 11 3 8 12 9
12 7 -5 -1 -11 1 -25 4 -31 4 -6 1 -22 -7 -37 -7 -15 -11 -26 -7 -26 28 4 30
-6 32 -158 1 -87 2 -163 3 -169 1 -17 27 -12 28 5 0 12 3 11 9 -4 5 -11 9 -14
9 -7 1 8 7 10 19 5 21 -10 64 -9 82 2 8 5 11 4 6 -3 -3 -6 -2 -13 4 -17 5 -3
10 2 10 12 0 15 2 16 10 3 5 -8 10 -10 10 -5 0 6 13 10 29 10 16 1 28 -2 25
-6 -2 -4 9 -4 26 1 19 6 32 5 36 -2 5 -7 2 -8 -7 -4 -8 4 -5 1 5 -8 16 -13 17
-18 6 -31 -10 -12 -10 -15 1 -15 11 0 11 -2 -1 -10 -13 -9 -13 -10 0 -10 13 0
13 -1 0 -10 -10 -6 -11 -10 -2 -10 6 0 12 -5 12 -11 0 -5 -4 -8 -8 -5 -4 2 -8
-4 -8 -14 0 -10 4 -16 8 -14 4 3 8 2 8 -3 0 -12 104 -11 112 1 5 7 8 6 8 -3 0
-11 3 -11 17 0 9 8 14 9 10 3 -4 -7 29 -10 109 -9 65 1 118 -3 121 -8 3 -6 1
-7 -5 -3 -7 4 -12 2 -12 -3 0 -6 5 -11 12 -11 6 0 3 -7 -8 -15 -19 -15 -19
-15 1 -8 11 3 17 3 13 -2 -11 -11 -81 -18 -74 -6 5 8 -15 8 -34 1 -3 -1 -8 -2
-12 -2 -3 1 -9 -5 -12 -14 -4 -10 -2 -13 7 -8 8 5 7 2 -2 -9 -11 -14 -11 -17
0 -17 11 0 11 -2 -1 -10 -13 -9 -13 -10 0 -10 13 0 13 -1 0 -10 -13 -9 -13
-10 0 -10 13 0 13 -1 0 -10 -13 -9 -13 -10 0 -10 13 0 13 -1 0 -10 -13 -9 -13
-10 0 -10 13 0 13 -1 0 -10 -13 -9 -13 -10 0 -10 13 0 13 -1 0 -10 -13 -9 -13
-10 0 -10 13 0 13 -1 0 -10 -11 -7 -11 -10 -2 -10 8 0 10 -5 5 -12 -14 -24
-12 -40 8 -45 10 -3 16 -10 12 -16 -4 -6 -1 -7 7 -2 19 12 100 13 100 1 0 -5
6 -2 13 9 11 14 16 15 22 5 6 -9 4 -11 -5 -5 -9 5 -11 4 -6 -4 5 -7 12 -9 19
-3 7 5 27 8 45 6 18 -1 30 2 27 7 -4 5 0 6 8 3 7 -2 14 -10 14 -17 1 -7 2 -52
3 -100 2 -49 5 -85 9 -80 9 12 55 12 63 -1 6 -8 8 -7 8 2 0 15 31 12 42 -3 5
-6 8 -6 8 1 0 6 11 12 25 12 14 0 22 -5 18 -11 -4 -6 -1 -7 8 -1 8 5 21 9 29
9 8 0 21 4 27 8 9 6 11 3 6 -10 -6 -15 -4 -16 8 -6 8 6 24 10 34 9 11 -2 26 1
33 7 9 7 11 5 5 -9 -6 -16 -4 -17 9 -7 8 7 18 9 23 5 4 -4 5 3 2 16 -3 12 -1
22 4 22 4 0 5 8 2 18 -6 15 -5 16 13 2 18 -14 18 -14 2 6 -10 11 -18 24 -18
28 0 5 8 5 18 2 16 -6 16 -5 0 8 -23 17 -24 72 -2 80 23 9 27 8 21 -8 -3 -7 0
-19 6 -25 8 -8 6 -11 -8 -11 -12 0 -16 -3 -9 -8 6 -4 11 -33 10 -65 -1 -47 2
-57 16 -57 9 0 20 5 24 12 4 6 3 8 -4 4 -7 -4 -10 5 -8 26 1 17 8 34 16 36 9
3 10 0 4 -9 -6 -11 -5 -12 7 -2 12 10 18 8 32 -8 17 -19 17 -20 0 -17 -10 2
-17 -2 -15 -9 1 -7 -3 -13 -8 -13 -6 0 -5 -8 2 -19 7 -11 16 -17 20 -15 5 3 5
11 1 17 -4 7 4 5 17 -4 25 -16 55 -15 44 2 -8 14 3 11 20 -7 9 -8 16 -10 16
-4 0 7 6 8 19 0 13 -7 22 -7 26 0 4 7 14 6 28 -2 21 -10 21 -10 7 7 -14 17
-13 18 5 8 11 -5 44 -9 73 -8 29 1 55 -1 58 -6 2 -4 11 -6 19 -3 8 4 12 10 9
16 -3 5 3 4 15 -4 18 -11 23 -10 36 7 9 11 14 15 12 10 -3 -6 6 -15 19 -22 16
-7 22 -8 17 0 -4 6 0 8 10 4 9 -3 18 -1 21 6 2 7 5 4 5 -5 1 -11 6 -15 16 -12
8 4 12 11 8 18 -5 8 -3 8 8 0 8 -6 22 -10 32 -9 9 2 17 -1 17 -6 0 -6 5 -7 10
-4 6 4 7 11 4 17 -4 7 0 7 13 -1 14 -7 23 -7 30 0 8 8 13 7 18 -2 6 -8 4 -10
-5 -4 -9 5 -11 4 -6 -4 4 -6 13 -8 19 -4 22 14 49 14 41 1 -4 -7 3 -4 15 7 12
11 21 14 19 8 -2 -6 2 -11 7 -11 6 0 9 4 7 10 -1 5 3 6 10 1 17 -10 128 -11
128 0 0 5 7 1 16 -7 19 -19 28 -21 21 -3 -3 7 3 13 13 13 10 0 16 -4 14 -8 -3
-4 2 -8 11 -8 9 0 13 4 10 10 -3 6 1 7 9 4 9 -3 13 -11 9 -17 -4 -6 -1 -7 8
-1 8 5 21 9 29 9 8 0 21 4 29 9 9 6 12 5 7 -2 -3 -6 -2 -13 4 -17 5 -3 10 -1
10 4 0 6 10 9 23 7 12 -2 27 1 34 6 7 6 14 5 19 -3 5 -8 3 -9 -6 -4 -9 5 -11
4 -6 -3 5 -9 12 -9 25 0 14 9 16 14 7 24 -6 6 -14 10 -18 7 -4 -2 -5 3 -2 11
4 10 1 16 -7 16 -11 0 -11 3 1 11 11 8 12 12 3 15 -10 4 -10 8 0 19 13 14 41
0 31 -16 -3 -5 -1 -8 4 -7 6 2 10 -1 11 -5 0 -4 7 -15 16 -23 8 -9 13 -20 9
-25 -3 -5 0 -8 8 -7 8 2 12 -5 10 -17 -2 -11 1 -16 5 -10 4 6 18 10 31 9 17
-1 22 3 17 14 -4 12 -3 12 9 3 11 -9 16 -9 22 0 4 7 3 9 -3 6 -6 -4 -13 0 -17
8 -3 8 0 17 6 21 7 4 8 3 4 -4 -4 -7 -3 -12 3 -12 5 0 12 6 14 13 3 6 4 -2 3
-19 -3 -27 0 -31 20 -28 13 1 24 -2 24 -8 0 -7 5 -7 13 1 8 6 17 8 21 4 10
-11 46 -11 46 0 0 5 7 3 17 -4 17 -14 20 -14 40 2 7 7 14 6 19 -2 5 -8 3 -9
-6 -4 -8 5 -11 4 -7 -3 6 -8 42 -10 42 -2 0 1 8 3 18 5 9 2 15 -1 12 -5 -3 -5
4 -8 15 -7 11 1 20 6 20 12 0 5 5 3 10 -5 5 -8 10 -10 10 -5 0 6 5 3 10 -5 8
-12 10 -12 10 -1 0 10 3 11 13 3 8 -7 18 -7 27 -2 8 5 21 5 32 -1 10 -5 18 -7
18 -3 0 3 8 0 17 -7 14 -12 16 -12 8 0 -6 11 -4 13 11 6 10 -4 27 -7 37 -7 9
0 17 -5 17 -11 0 -8 3 -8 8 -2 11 15 34 17 43 4 6 -10 11 -10 23 0 13 11 16
11 16 0 0 -11 2 -11 10 1 9 14 15 7 11 -14 -1 -5 4 -4 13 3 9 7 17 8 20 2 4
-6 18 -6 36 -1 17 5 28 5 25 0 -3 -4 2 -11 11 -14 11 -4 15 -2 11 8 -5 12 -1
13 26 3 37 -14 66 -15 86 -3 9 6 12 5 7 -2 -4 -6 1 -10 13 -9 19 1 19 2 0 29
-11 15 -27 28 -35 28 -8 0 -12 4 -9 10 3 5 -5 15 -19 21 -14 7 -23 15 -21 19
3 5 -2 10 -10 14 -8 3 -15 13 -15 23 0 15 -2 16 -10 3 -8 -12 -10 -12 -10 -1
0 16 -46 61 -54 53 -6 -5 -10 14 -7 31 0 4 -5 6 -11 5 -7 -2 -12 3 -10 10 1 8
-2 11 -8 7 -5 -3 -13 1 -16 9 -3 9 -12 16 -20 16 -8 0 -14 4 -14 8 0 19 -59
74 -71 66 -8 -4 -10 -3 -5 5 4 6 0 14 -8 17 -9 3 -16 12 -16 20 0 8 -7 14 -16
14 -9 0 -12 5 -8 12 5 8 2 9 -9 5 -9 -3 -16 -3 -16 1 3 17 -2 32 -8 30 -5 -2
-9 1 -10 7 -1 5 -11 13 -23 17 -12 4 -19 12 -15 17 3 5 -4 12 -15 16 -11 3
-20 10 -20 14 0 13 -37 51 -49 51 -7 0 -9 5 -6 10 3 6 1 10 -5 10 -17 0 -40
26 -32 35 4 5 -1 5 -10 2 -10 -3 -17 -3 -15 1 1 4 -2 7 -7 7 -5 0 -12 10 -17
22 -6 16 -13 21 -25 16 -12 -4 -15 -3 -10 6 9 13 -27 54 -38 44 -3 -4 -6 1 -6
10 0 8 -11 24 -25 35 -13 11 -21 22 -17 26 3 4 -1 4 -11 0 -16 -6 -22 5 -18
29 1 5 -3 6 -9 2 -5 -3 -13 1 -16 9 -3 9 -10 13 -15 10 -5 -3 -9 2 -9 10 0 8
-5 18 -12 22 -7 5 -8 3 -3 -7 5 -8 -3 -3 -18 11 -15 14 -27 31 -27 38 0 7 -4
10 -10 7 -5 -3 -10 -1 -10 5 0 6 -5 8 -12 4 -7 -4 -8 -3 -4 5 4 6 0 14 -8 17
-9 3 -16 12 -16 19 0 8 -5 17 -12 21 -7 5 -8 3 -3 -7 5 -8 -27 22 -70 66 -43
44 -84 80 -89 80 -6 0 -10 9 -8 19 2 11 -1 15 -7 11 -6 -3 -11 -1 -11 5 0 17
-26 40 -35 32 -5 -4 -5 -2 -2 5 9 15 -2 45 -14 37 -8 -5 -14 18 -10 39 1 5 -3
6 -9 2 -5 -3 -10 1 -10 10 0 10 -5 13 -12 9 -8 -5 -9 -2 -5 9 3 9 -1 23 -9 32
-9 9 -13 22 -10 30 3 8 1 15 -5 15 -6 0 -8 4 -5 9 4 5 2 11 -4 13 -5 1 -11 15
-12 31 -1 15 -6 27 -11 27 -5 0 -4 7 3 15 8 9 8 15 2 15 -13 0 -14 187 -2 211
5 9 11 35 12 57 2 22 7 38 12 34 5 -3 7 2 3 11 -4 10 0 20 11 26 12 7 13 10 3
11 -11 0 -11 3 -1 15 6 8 9 19 6 24 -4 5 2 14 11 20 10 6 13 11 8 11 -6 0 -11
9 -11 19 0 11 4 17 10 14 5 -3 7 6 4 21 -5 23 -3 25 11 14 9 -7 13 -8 9 -4 -4
5 -2 16 5 24 9 13 9 14 0 8 -7 -4 -13 -2 -13 3 0 6 5 11 11 11 5 0 7 5 4 11
-4 6 1 17 11 25 18 13 18 14 -1 7 -19 -6 -19 -6 -2 14 9 11 14 22 11 26 -3 3
-2 12 2 19 5 7 10 22 11 32 2 11 7 24 12 30 15 20 19 53 8 72 -9 17 -9 17 5 6
14 -11 16 -10 13 5 -1 10 4 28 12 41 12 19 12 26 1 40 -9 11 -10 14 0 8 8 -5
12 1 12 19 0 15 4 24 10 20 6 -3 7 1 4 9 -4 10 -1 16 7 16 11 0 11 3 -1 10
-11 7 -12 10 -2 10 9 0 11 7 7 21 -5 15 -4 19 4 15 7 -5 11 4 12 23 2 50 4 56
17 53 10 -2 10 3 2 18 -8 15 -8 20 1 20 7 0 9 3 6 7 -4 3 -2 12 5 20 6 7 8 16
4 20 -3 3 1 14 10 24 11 12 12 19 4 24 -8 5 -6 13 6 26 9 10 14 19 9 19 -4 0
-1 8 6 17 12 14 12 16 -1 9 -13 -7 -13 -6 0 6 8 7 15 27 15 43 0 21 4 29 14
27 12 -3 12 0 2 12 -8 10 -9 16 -1 21 6 3 8 11 5 16 -4 5 -1 9 6 9 6 0 9 8 6
20 -3 11 -1 20 4 20 6 0 5 9 -1 20 -8 15 -8 20 1 18 6 -2 13 5 15 14 2 10 5
24 7 30 1 7 7 19 11 27 7 10 5 12 -3 6 -10 -5 -10 -2 -2 14 6 12 16 30 22 42
8 17 8 20 -3 14 -10 -6 -11 -5 0 6 6 7 12 24 12 37 0 16 4 21 13 16 8 -5 8 -3
-2 9 -11 14 -11 18 2 23 9 3 13 13 10 25 -3 12 0 19 8 19 11 0 11 2 -1 10 -9
6 -10 10 -3 10 6 0 10 9 8 20 -2 12 0 18 6 14 6 -3 13 3 16 15 3 12 12 21 20
21 8 0 12 4 9 9 -3 5 3 11 14 14 11 3 18 2 15 -3 -3 -4 6 -7 20 -6 14 0 25 7
25 15 0 11 4 9 15 -5 11 -14 14 -15 15 -4 0 13 1 13 10 0 7 -11 10 -11 10 -2
0 7 5 10 10 7 6 -4 8 -12 4 -18 -3 -7 0 -5 8 4 9 11 19 14 33 8 30 -12 35 -11
35 8 0 15 2 14 15 -3 11 -14 15 -16 15 -4 0 12 4 10 15 -4 13 -17 15 -18 15
-3 0 9 5 17 11 17 6 0 8 -8 5 -17 -5 -16 -5 -16 8 0 14 18 15 18 25 0 9 -16
10 -17 11 -1 0 15 4 16 25 8 14 -5 25 -7 25 -4 0 4 6 1 14 -5 11 -9 16 -9 22
0 4 7 3 9 -4 5 -6 -3 -14 -1 -18 5 -5 9 1 10 22 4 54 -13 82 -12 76 4 -4 10
-2 12 9 6 22 -14 70 -15 62 -2 -4 7 0 7 10 -1 9 -8 21 -11 27 -7 6 4 18 1 27
-7 10 -8 14 -8 10 -1 -4 6 -3 14 2 17 5 3 12 -1 15 -10 5 -13 9 -14 21 -4 12
10 18 10 31 0 8 -8 14 -9 13 -4 -4 23 2 26 15 8 14 -18 15 -18 21 -2 4 10 11
15 16 12 5 -3 6 -11 2 -17 -5 -9 -3 -9 8 -1 8 6 32 10 54 9 22 0 50 3 63 7 13
5 22 4 22 -3 0 -6 4 -8 8 -5 20 12 62 14 62 3 0 -7 5 -4 11 6 9 15 13 16 27 5
9 -7 13 -8 9 -2 -4 7 0 14 8 18 8 3 17 1 21 -5 4 -6 11 -6 20 2 8 6 14 8 14 3
0 -4 7 1 16 12 15 19 16 19 9 -1 -5 -17 -3 -17 21 5 15 14 24 19 20 13 -5 -9
-2 -11 9 -7 9 4 14 13 11 20 -3 8 0 11 9 7 8 -3 17 2 21 10 3 10 12 13 22 10
9 -4 14 -3 10 1 -7 8 33 52 44 49 4 -2 4 5 1 14 -5 12 -2 15 10 10 12 -4 14
-2 10 10 -4 10 -2 14 4 10 6 -4 10 3 9 16 -1 13 4 21 12 19 10 -2 10 2 2 18
-8 15 -8 20 2 18 6 -2 12 2 13 7 0 6 4 16 9 24 7 11 6 12 -5 6 -12 -8 -12 -6
0 8 7 9 11 26 8 37 -3 11 -1 20 3 20 5 0 7 12 4 26 -3 14 1 33 8 42 10 12 10
14 1 8 -9 -5 -12 1 -9 23 2 18 -1 31 -8 31 -6 0 -4 5 4 10 9 6 10 10 3 10 -6
0 -10 9 -8 20 3 13 0 18 -7 14 -7 -5 -9 0 -6 14 4 12 2 25 -3 28 -5 3 -7 10
-4 15 4 5 1 9 -5 9 -6 0 -9 4 -5 9 3 5 -2 16 -10 24 -11 12 -12 17 -2 20 9 4
9 6 0 6 -7 1 -13 10 -13 22 0 11 -3 18 -7 16 -5 -3 -9 9 -10 26 -1 17 -6 33
-10 36 -13 10 -15 91 -3 91 6 0 8 5 5 10 -3 6 -1 10 5 10 6 0 9 4 6 9 -3 4 10
16 29 27 18 10 32 22 29 26 -3 4 4 8 16 8 12 0 19 4 16 9 -3 5 1 12 10 15 8 3
12 11 9 16 -4 6 -1 9 7 8 7 -2 14 7 16 20 2 13 8 20 14 16 7 -5 9 -2 5 8 -3 9
0 21 6 27 8 8 8 11 -2 11 -9 0 -8 5 4 16 12 12 13 19 4 30 -6 8 -9 20 -6 29 4
8 -1 19 -11 24 -14 8 -14 11 -2 11 12 0 11 3 -2 11 -20 11 -25 34 -5 24 6 -4
2 2 -10 13 -12 11 -19 22 -16 26 4 3 0 6 -8 6 -11 0 -11 2 1 10 12 8 12 10 1
10 -9 0 -7 6 7 19 12 10 22 24 22 31 0 7 7 10 16 6 14 -5 15 -4 5 8 -9 11 -8
15 4 20 8 3 15 15 15 26 0 14 4 19 12 14 8 -5 9 -2 5 9 -3 10 -3 17 1 17 5 0
7 22 6 50 -1 34 2 47 10 43 6 -3 5 0 -1 8 -7 7 -13 20 -13 29 0 8 -9 22 -21
30 -70 50 -106 111 -73 124 8 3 14 12 14 21 0 8 8 15 17 15 9 0 14 3 10 6 -6
7 17 34 29 34 4 0 13 8 21 18 10 11 12 12 8 2 -4 -8 1 -6 10 5 9 11 21 19 26
18 8 -3 13 12 10 30 -1 5 4 5 10 1 7 -4 20 3 31 17 11 13 17 18 13 12 -3 -7
-1 -13 4 -13 6 0 11 7 11 15 0 8 3 14 8 13 15 -3 42 15 35 25 -3 5 -2 7 4 4 5
-4 19 3 31 13 12 11 23 20 26 20 11 0 56 48 56 59 0 7 4 10 9 7 5 -3 16 10 25
29 9 19 21 35 25 35 5 0 7 14 5 31 -3 22 0 28 9 23 9 -6 9 -4 -1 8 -9 11 -9
17 -2 20 6 2 8 11 5 21 -4 9 -11 15 -15 12 -5 -3 -6 4 -3 15 3 11 0 20 -6 20
-6 0 -11 12 -11 26 0 14 -4 23 -10 19 -5 -3 -10 1 -10 9 0 9 -4 16 -10 16 -5
0 -10 7 -10 15 0 13 -12 19 -32 16 -4 0 -5 6 -2 14 6 14 -6 20 -29 16 -5 -1
-6 2 -3 7 2 4 -6 16 -19 26 -14 10 -22 23 -18 29 3 5 2 7 -4 4 -6 -4 -19 1
-29 9 -10 9 -14 13 -7 10 6 -4 15 -1 19 5 4 7 3 9 -4 5 -6 -3 -17 0 -25 8 -8
8 -17 12 -21 9 -3 -4 -6 4 -6 16 0 12 -4 19 -10 16 -5 -3 -10 -1 -10 5 0 6 -5
8 -12 4 -6 -4 -8 -3 -5 3 3 5 -3 17 -14 26 -11 10 -17 23 -13 29 4 7 3 8 -4 4
-7 -4 -12 -2 -12 4 0 6 -10 15 -22 20 -13 5 -17 9 -10 9 8 1 2 12 -13 27 -14
14 -22 30 -19 36 4 7 2 8 -4 4 -7 -4 -12 -2 -12 4 0 6 -4 9 -9 5 -6 -3 -8 4
-6 15 2 13 -1 20 -11 20 -8 0 -14 7 -14 15 0 8 -4 15 -10 15 -5 0 -10 9 -10
21 0 11 -4 17 -10 14 -5 -3 -10 3 -10 13 0 11 -7 23 -16 26 -9 4 -14 13 -10
22 3 8 2 12 -4 9 -6 -3 -10 1 -10 9 0 9 -4 16 -10 16 -5 0 -9 3 -9 8 4 22 -2
42 -11 37 -5 -3 -10 3 -10 14 0 12 -5 21 -12 21 -6 0 -8 3 -5 7 4 3 1 13 -6
21 -10 13 -9 15 3 8 8 -4 7 -1 -3 7 -10 8 -19 24 -20 36 -1 12 -4 21 -7 21 -3
0 -6 10 -7 22 -1 11 -6 24 -10 27 -7 5 -10 16 -16 56 -1 6 -6 13 -12 17 -6 5
-4 8 5 8 12 0 12 2 2 9 -8 5 -14 25 -14 45 0 20 -4 36 -9 36 -4 0 -6 6 -3 14
3 8 1 17 -4 20 -6 3 -8 15 -5 26 3 11 0 26 -6 34 -9 11 -9 16 0 22 8 5 9 3 4
-6 -5 -8 -4 -11 2 -7 13 8 4 57 -9 57 -6 0 -5 7 3 16 10 13 10 17 -2 25 -9 6
-10 12 -4 17 15 11 18 35 4 26 -9 -5 -10 -2 -6 10 4 10 7 20 7 22 0 3 4 3 9
-1 6 -3 6 6 1 25 -5 16 -6 30 -2 30 4 0 0 5 -8 10 -13 9 -13 10 0 10 12 0 15
14 13 77 -2 49 2 82 10 91 9 13 9 14 0 8 -16 -9 -18 15 -3 30 12 12 2 47 -11
38 -5 -3 -5 6 0 19 6 14 7 28 3 32 -3 3 0 10 8 15 10 7 11 10 3 10 -7 0 -13 6
-13 14 0 8 6 17 13 19 10 4 10 6 0 6 -7 1 -13 9 -13 19 0 10 6 24 13 31 10 11
10 13 0 7 -16 -9 -18 20 -3 29 7 5 8 11 1 19 -5 6 -11 36 -12 66 -1 30 -6 63
-11 74 -7 13 -7 16 1 12 6 -4 11 -2 11 3 0 6 -5 11 -11 11 -6 0 -9 9 -6 20 3
11 0 20 -6 20 -8 0 -8 3 0 11 13 13 5 51 -9 43 -6 -4 -5 3 1 14 7 14 8 23 1
27 -5 3 -10 20 -10 36 0 19 -4 28 -11 23 -7 -4 -7 1 1 16 8 15 8 20 1 16 -7
-5 -11 2 -11 16 0 13 -6 30 -12 37 -11 11 -10 12 2 6 12 -7 13 -6 3 7 -7 8
-10 18 -6 21 3 4 1 7 -5 7 -6 0 -9 7 -5 17 5 12 3 14 -8 8 -11 -7 -11 -5 1 10
8 10 10 16 4 12 -13 -8 -27 19 -18 34 3 5 0 9 -5 9 -6 0 -11 7 -11 15 0 8 -6
15 -12 15 -9 0 -8 4 2 10 8 5 11 10 5 10 -11 0 -35 46 -35 67 0 7 -4 13 -9 13
-5 0 -9 19 -9 42 -1 30 2 38 8 28 6 -8 10 -10 10 -5 0 6 -5 16 -11 22 -8 8 -8
13 0 17 6 4 11 25 11 47 0 24 5 39 13 39 8 0 7 4 -3 10 -13 9 -13 11 0 20 13
9 13 10 0 10 -13 0 -13 1 0 11 12 8 12 12 2 16 -10 4 -9 9 5 20 10 8 13 12 7
9 -7 -3 -15 1 -18 10 -3 8 -2 12 4 9 12 -8 9 36 -4 54 -8 11 -8 13 2 7 6 -4
12 -2 12 3 0 6 -4 11 -10 11 -5 0 -10 5 -10 11 0 5 6 7 13 3 8 -5 8 -2 -2 9
-11 14 -11 17 0 17 11 0 11 2 -1 10 -13 9 -13 11 0 20 9 6 10 10 3 10 -6 0
-13 15 -15 33 -2 20 -8 31 -16 29 -8 -1 -11 2 -7 8 3 6 11 8 17 4 5 -3 3 7 -4
22 -8 16 -13 37 -11 47 3 9 0 17 -6 17 -6 0 -11 9 -11 20 0 11 -5 20 -11 20
-8 0 -7 6 2 18 7 9 9 14 5 10 -12 -10 -39 29 -31 42 3 6 1 10 -6 10 -7 0 -9 3
-6 7 4 3 -2 12 -13 20 -11 8 -20 25 -20 39 0 14 -4 23 -9 20 -5 -3 -12 1 -15
10 -4 9 -2 13 5 8 8 -5 8 -1 0 14 -6 11 -17 22 -26 26 -8 3 -15 13 -15 21 0 9
-4 14 -9 10 -6 -3 -15 5 -22 17 -7 13 -25 35 -41 50 -15 14 -28 32 -28 39 0 7
-3 10 -6 6 -3 -3 -21 10 -40 29 -19 19 -39 34 -44 34 -6 0 -10 7 -10 15 0 8
-3 14 -7 14 -20 -3 -34 2 -28 11 3 6 0 10 -9 10 -8 0 -16 4 -18 9 -1 5 -10 11
-18 13 -8 2 -21 10 -28 18 -7 8 -12 11 -11 5 3 -23 -2 -45 -9 -45 -11 0 -10
40 1 57 5 8 1 11 -13 8 -13 -3 -20 1 -20 12 0 10 -6 13 -16 9 -8 -3 -12 -2 -9
4 3 6 -1 10 -10 10 -10 0 -13 5 -9 12 4 6 3 8 -4 4 -6 -3 -18 2 -28 11 -10 10
-19 17 -21 16 -10 -8 -23 -1 -23 12 0 8 -5 15 -11 15 -5 0 -7 -5 -3 -12 4 -6
-5 -3 -19 8 -15 10 -27 24 -27 29 0 6 -5 3 -10 -5 -8 -13 -10 -12 -10 3 0 10
-4 16 -9 12 -5 -3 -12 -1 -16 4 -3 6 -12 8 -21 4 -9 -3 -14 0 -12 7 2 7 -6 14
-16 16 -10 1 -23 9 -27 16 -5 7 -9 9 -9 5 0 -5 -7 -1 -16 8 -13 12 -19 13 -30
4 -12 -10 -13 -9 -8 6 5 11 3 16 -3 12 -5 -3 -24 3 -42 14 -18 11 -30 15 -26
9 3 -6 0 -7 -9 -4 -9 3 -13 10 -10 15 3 5 -6 9 -20 9 -14 0 -26 4 -26 9 0 4
-10 8 -22 7 -15 -1 -22 4 -20 13 2 8 -3 11 -11 8 -8 -3 -20 0 -26 6 -8 8 -11
8 -11 -2 0 -8 -9 -3 -21 10 -11 13 -18 18 -14 12 3 -7 2 -13 -4 -13 -5 0 -11
5 -13 12 -2 6 -19 12 -38 13 -19 1 -36 7 -38 13 -2 6 -10 8 -18 5 -8 -3 -14 1
-14 8 0 11 -3 11 -10 -1 -9 -13 -10 -13 -10 0 0 13 -1 13 -10 0 -9 -13 -10
-13 -11 0 -1 8 -1 17 -1 20 0 3 -8 6 -18 6 -10 0 -16 -4 -13 -9 3 -5 -5 -3
-18 4 -13 7 -32 12 -41 10 -10 -1 -18 2 -18 7 0 5 -7 9 -15 9 -8 0 -15 -4 -15
-9 0 -5 -6 -3 -14 4 -8 7 -11 18 -8 23 3 6 -1 4 -9 -2 -11 -9 -19 -9 -26 -2
-7 7 -13 7 -17 1 -4 -6 -20 -3 -44 8 -27 13 -39 15 -44 7 -6 -9 -8 -8 -8 2 0
10 -3 11 -14 2 -11 -9 -15 -9 -18 0 -2 7 -26 13 -53 14 -28 1 -60 5 -72 9 -13
4 -23 3 -23 -2 0 -6 -9 -8 -20 -5 -11 3 -17 9 -14 14 3 5 -6 5 -20 -1 -16 -6
-27 -6 -31 0 -4 6 -11 10 -16 10 -6 0 -7 -5 -3 -11 4 -8 1 -8 -12 -1 -15 7
-383 9 -439 2 -5 -1 -20 1 -33 4 -14 3 -20 1 -16 -5z m-202 -79 c-6 -6 -10 -3
-10 10 0 13 4 16 10 10 7 -7 7 -13 0 -20z m948 -151 c-9 -22 -27 -27 -27 -6
-1 12 14 27 27 27 4 0 4 -9 0 -21z m6 -207 c-13 -6 -9 -20 6 -24 10 -2 11 -9
3 -28 -8 -20 -11 -22 -14 -7 -3 9 -8 17 -12 17 -4 0 -8 17 -8 39 -1 36 1 38
16 22 9 -9 13 -17 9 -19z m-2708 -541 c0 8 6 6 16 -7 8 -10 13 -14 10 -8 -7
13 51 14 72 1 7 -5 14 -2 18 7 3 9 11 13 18 9 6 -4 17 -8 24 -9 20 -3 23 -9
16 -27 -3 -9 -14 -14 -25 -12 -10 2 -19 1 -19 -3 0 -4 -11 -7 -25 -7 -14 0
-25 2 -25 5 0 3 -9 6 -20 6 -11 0 -20 -4 -20 -8 0 -4 -7 -5 -15 -2 -8 4 -12
10 -9 15 3 5 0 9 -5 9 -6 0 -11 -5 -11 -11 0 -8 -6 -7 -17 2 -15 12 -16 12
-10 -3 4 -12 2 -15 -8 -11 -8 3 -13 9 -10 13 3 5 -4 6 -15 3 -23 -6 -26 3 -7
21 19 19 41 24 55 13 8 -6 12 -5 12 4z m-127 -16 c9 -21 -9 -27 -24 -8 -10 12
-10 14 -1 9 6 -4 12 -2 12 3 0 16 7 13 13 -4z m1118 -8 c-8 -8 -14 -7 -23 2
-10 11 -10 13 0 7 6 -4 12 -2 12 4 0 6 5 8 11 4 8 -4 8 -9 0 -17z m-1118 -81
c-4 -6 1 -5 10 3 9 7 17 10 17 6 0 -4 6 -2 14 4 10 8 16 9 21 1 3 -6 10 -8 15
-5 5 3 19 1 30 -5 16 -9 20 -8 20 5 0 12 4 11 20 -5 21 -21 27 -35 10 -25 -5
3 -10 0 -10 -7 0 -10 -2 -10 -9 1 -6 9 -10 10 -16 2 -5 -9 -10 -9 -20 -1 -10
8 -15 8 -20 0 -5 -8 -12 -5 -21 7 -13 17 -14 17 -8 -2 6 -16 5 -18 -7 -7 -7 6
-17 12 -22 12 -4 0 -5 -6 -1 -12 6 -10 4 -10 -8 0 -13 10 -17 10 -21 0 -3 -7
-6 -4 -6 7 -1 14 -4 16 -9 7 -5 -7 -18 -14 -31 -17 -12 -2 -19 0 -16 6 4 5 -2
9 -12 9 -12 1 -8 5 12 14 17 7 36 11 44 8 9 -3 12 -1 7 6 -5 8 -2 10 8 6 9 -3
13 -11 9 -18z m3983 -70 c-2 -49 -12 -53 -12 -6 0 22 3 40 7 40 4 0 6 -15 5
-34z m-3897 -63 c-6 -7 -15 -10 -20 -7 -13 8 -3 21 15 21 12 0 13 -4 5 -14z
m3824 -66 c-8 -13 -32 13 -26 29 4 12 8 12 18 -3 7 -10 11 -21 8 -26z m-18 -7
c3 -5 12 -7 20 -3 10 3 15 -2 15 -16 0 -12 -6 -21 -12 -22 -10 0 -10 -2 0 -6
6 -2 12 -9 12 -14 0 -6 -4 -7 -10 -4 -6 3 -7 -1 -4 -9 3 -9 1 -16 -6 -16 -6 0
-8 -5 -5 -11 4 -6 -2 -5 -14 3 -12 7 -17 14 -11 16 14 5 12 79 -2 85 -10 4
-10 6 -1 6 6 1 14 -3 18 -9z m93 -127 c1 -15 8 -30 15 -35 8 -5 6 -8 -8 -8
-17 0 -17 -2 -5 -10 11 -7 11 -10 2 -10 -7 0 -11 -4 -8 -9 3 -5 -2 -15 -11
-22 -14 -12 -16 -12 -8 1 12 19 6 81 -8 99 -9 12 -9 13 1 7 6 -4 12 -2 12 3 0
24 16 9 18 -16z m-3077 -2 c-6 -10 -7 -21 -4 -25 3 -3 1 -6 -5 -6 -7 0 -12 5
-12 11 0 5 -6 7 -12 4 -7 -4 -2 3 11 14 29 26 35 26 22 2z m-264 -36 c0 -8 -4
-12 -9 -9 -5 3 -6 10 -3 15 9 13 12 11 12 -6z m706 -1 c-3 -9 -23 -13 -36 -6
-4 2 -5 7 -2 12 7 11 41 6 38 -6z m2855 -213 c0 -54 2 -103 5 -108 4 -5 0 -10
-8 -10 -9 0 -15 10 -15 24 0 16 -4 22 -12 18 -7 -4 -4 1 6 9 11 9 14 16 7 16
-7 0 -9 5 -6 10 3 6 1 10 -4 10 -6 0 -11 5 -11 11 0 5 6 7 13 3 9 -5 9 -4 0 6
-12 13 -7 43 6 35 4 -2 6 16 5 41 -2 24 1 42 6 39 4 -3 8 -50 8 -104z m-1458
-68 c0 -20 -4 -32 -10 -28 -5 3 -10 1 -10 -4 0 -6 4 -11 9 -11 5 0 8 -22 7
-49 -1 -27 2 -47 6 -45 3 2 9 0 13 -6 3 -5 1 -10 -5 -10 -7 0 -10 -6 -7 -13 3
-8 -3 -13 -17 -13 -13 0 -23 6 -23 13 0 10 3 10 15 0 13 -10 14 -9 5 7 -6 10
-8 27 -6 37 3 11 0 19 -6 19 -7 0 -9 5 -4 13 12 19 13 39 1 60 -7 14 -7 17 1
13 6 -4 11 -1 11 8 0 8 -6 17 -12 19 -8 3 -5 6 6 6 15 1 16 4 6 16 -11 13 -10
14 4 9 10 -4 16 -18 16 -41z m-2060 -29 c0 -2 -9 -4 -21 -4 -11 0 -18 4 -14
10 5 8 35 3 35 -6z m440 12 c0 -2 -8 -10 -17 -17 -16 -13 -17 -12 -4 4 13 16
21 21 21 13z m2939 -55 c1 -27 -2 -51 -6 -54 -4 -3 -9 19 -10 49 -1 30 2 54 6
54 4 0 8 -22 10 -49z m-4159 25 c0 -3 -4 -8 -10 -11 -5 -3 -10 -1 -10 4 0 6 5
11 10 11 6 0 10 -2 10 -4z m780 0 c0 -2 -7 -7 -16 -10 -8 -3 -12 -2 -9 4 6 10
25 14 25 6z m2063 -205 c-2 -6 3 -11 10 -11 8 0 7 -4 -3 -10 -10 -6 -11 -10
-2 -10 6 0 12 -7 12 -15 0 -8 -6 -15 -12 -15 -8 0 -9 -3 -3 -8 19 -13 14 -40
-6 -35 -12 4 -19 14 -19 30 0 17 -4 22 -12 17 -9 -6 -9 -3 1 9 7 9 10 24 7 33
-3 9 -3 20 0 25 8 13 30 5 27 -10z m-8 -131 c-4 -14 -2 -20 7 -18 9 2 13 -9
13 -38 1 -31 -3 -40 -17 -41 -10 -1 -18 3 -18 8 0 6 6 7 13 3 9 -6 9 -4 1 7
-15 18 -23 79 -12 79 5 0 6 5 3 10 -3 6 -1 10 5 10 7 0 9 -8 5 -20z m-1995
-70 c0 -11 -4 -20 -9 -20 -5 0 -7 9 -4 20 3 11 7 20 9 20 2 0 4 -9 4 -20z
m2400 -114 c0 -2 -7 -7 -16 -10 -8 -3 -12 -2 -9 4 6 10 25 14 25 6z m-4204
-170 c-1 -35 -2 -39 -7 -21 -1 6 -9 16 -18 23 -9 8 -11 11 -5 8 7 -3 14 1 18
9 9 24 13 18 12 -19z m1137 -210 c-4 -6 1 -5 10 3 9 7 17 10 17 5 0 -5 5 -2
10 6 8 12 10 12 10 1 0 -8 3 -11 7 -8 3 4 12 -1 20 -11 10 -14 12 -14 8 -1 -5
12 1 15 25 14 16 -1 30 3 31 9 0 6 4 2 9 -9 l9 -20 0 20 c1 17 3 17 11 5 5 -8
10 -10 10 -5 0 6 5 3 10 -5 6 -9 10 -10 10 -3 0 7 10 10 26 7 19 -3 24 -1 18
8 -5 9 -2 8 10 -1 15 -13 19 -13 27 0 5 8 9 9 9 2 0 -13 18 -12 39 1 11 7 13
5 8 -7 -3 -10 -2 -17 3 -17 6 0 10 5 10 11 0 5 5 7 10 4 6 -3 10 0 10 7 0 10
2 10 9 -1 5 -8 16 -11 26 -7 10 3 25 1 33 -6 11 -9 14 -9 9 -1 -4 6 -3 14 3
18 5 3 10 -2 10 -12 0 -10 3 -14 8 -8 4 6 14 10 22 10 8 -1 25 2 36 6 13 4 26
3 33 -4 8 -8 11 -8 11 2 0 7 4 10 10 6 5 -3 7 -13 4 -23 -5 -14 -4 -15 5 -2
12 18 81 23 81 6 0 -7 3 -7 8 -1 11 16 41 15 35 -1 -3 -8 0 -14 6 -14 6 0 11
6 11 14 0 8 9 13 23 12 12 -1 26 3 30 9 5 6 7 3 3 -7 -3 -10 -1 -18 4 -18 6 0
10 6 11 13 0 10 2 10 6 0 2 -7 9 -13 14 -13 6 0 7 4 4 10 -3 6 1 7 9 4 9 -3
16 -10 16 -16 0 -5 10 -6 21 -3 16 5 20 3 16 -6 -2 -8 -10 -13 -16 -12 -6 2
-11 0 -11 -5 0 -4 -11 -7 -24 -7 -13 0 -22 3 -20 7 2 4 0 9 -5 12 -5 4 -13 2
-16 -4 -5 -8 -11 -7 -21 1 -7 6 -11 15 -8 20 3 5 0 9 -6 9 -7 0 -10 -7 -7 -15
4 -8 2 -17 -3 -20 -6 -4 -10 -2 -10 2 0 14 -53 10 -68 -4 -7 -7 -10 -19 -6
-25 6 -11 5 -11 -8 0 -13 11 -15 9 -10 -15 4 -23 3 -25 -9 -13 -9 7 -13 25
-11 40 3 20 -1 26 -17 27 -12 1 -21 -3 -21 -9 0 -6 -6 -5 -16 3 -13 10 -17 10
-25 -2 -5 -8 -9 -9 -9 -2 0 8 -9 9 -30 3 -17 -5 -28 -5 -26 -1 3 4 -8 8 -25 9
-19 0 -27 -3 -23 -10 4 -7 2 -8 -5 -4 -6 4 -9 11 -6 16 3 5 0 12 -6 16 -7 4
-9 3 -6 -3 4 -6 0 -16 -8 -23 -8 -7 -12 -17 -9 -22 4 -6 -3 -5 -15 1 -11 7
-21 14 -21 17 0 3 5 2 12 -2 7 -4 8 -3 4 5 -8 13 -37 11 -49 -4 -5 -6 -7 -3
-3 8 3 9 1 17 -4 17 -6 0 -10 -4 -10 -10 0 -5 -5 -10 -11 -10 -5 0 -7 6 -4 13
4 6 0 4 -7 -5 -10 -11 -19 -14 -29 -7 -20 13 -31 11 -23 -3 6 -10 5 -10 -7 -1
-15 12 -36 12 -56 0 -7 -4 -16 0 -21 9 -6 11 -11 13 -16 5 -9 -14 -26 -14 -26
0 0 5 5 7 12 3 7 -5 8 -3 4 5 -6 10 -12 9 -24 -2 -27 -22 -46 -32 -38 -18 6 8
0 11 -21 8 -33 -5 -66 10 -57 25 5 7 2 8 -5 4 -7 -5 -10 -15 -6 -23 4 -13 3
-13 -9 -4 -8 7 -15 8 -18 2 -1 -5 -14 -1 -27 10 l-23 19 30 -4 c17 -2 36 0 43
4 17 11 41 1 32 -14z m921 -21 c-4 -8 -8 -15 -10 -15 -2 0 -4 7 -4 15 0 8 4
15 10 15 5 0 7 -7 4 -15z m266 -41 c0 -7 -6 -16 -12 -20 -7 -4 -10 -4 -6 1 4
4 3 13 -2 20 -7 8 -5 12 5 12 8 0 15 -6 15 -13z m1800 -49 c0 -8 -4 -15 -10
-15 -5 0 -7 7 -4 15 4 8 8 15 10 15 2 0 4 -7 4 -15z m-2783 -62 c0 -7 -4 -13
-8 -13 -4 0 -9 6 -12 13 -3 8 0 14 7 14 7 0 13 -6 13 -14z m450 11 c-3 -3 -12
-4 -19 -1 -8 3 -5 6 6 6 11 1 17 -2 13 -5z m2342 -21 c-6 -7 -15 -10 -20 -7
-13 8 -3 21 15 21 12 0 13 -4 5 -14z m-3574 -92 c3 -5 2 -12 -3 -15 -5 -3 -9
1 -9 9 0 17 3 19 12 6z m690 -89 c-3 -3 -11 0 -18 7 -9 10 -8 11 6 5 10 -3 15
-9 12 -12z m-5 -12 c12 -8 12 -10 -3 -16 -9 -3 -14 -11 -10 -18 3 -7 1 -6 -7
1 -31 29 -15 55 20 33z m-3 -90 c-1 -22 -17 -28 -17 -7 0 12 9 27 16 27 2 0 2
-9 1 -20z m2583 -21 c0 -5 -4 -9 -8 -9 -5 0 -9 7 -9 15 0 8 4 12 9 9 4 -3 8
-9 8 -15z m588 -40 c-10 -7 -10 -9 2 -9 13 0 13 -1 0 -10 -9 -6 -10 -10 -3
-10 6 0 11 -9 10 -20 -1 -11 -5 -20 -10 -20 -4 0 -5 -6 -1 -12 4 -7 5 -11 1
-8 -3 3 -6 10 -7 15 -1 6 -6 16 -12 23 -7 8 -7 17 2 27 10 12 10 15 -1 16 -10
0 -11 2 -1 6 6 2 10 9 7 14 -4 5 1 6 10 2 13 -5 14 -7 3 -14z m146 -51 c-3 -4
-11 -5 -19 -1 -21 7 -19 12 4 10 11 0 18 -5 15 -9z m-16 -33 c-3 -3 -9 2 -12
12 -6 14 -5 15 5 6 7 -7 10 -15 7 -18z m-3274 -107 c-4 -5 -6 -43 -6 -84 0
-41 -4 -76 -9 -80 -5 -3 -9 3 -9 13 0 15 -2 16 -11 3 -7 -11 -9 0 -7 40 1 39
6 57 17 62 14 6 13 7 -1 7 -21 1 -23 12 -6 29 9 9 9 12 0 12 -7 0 -12 4 -12 9
0 4 11 6 25 3 14 -2 22 -9 19 -14z m2796 -118 c0 -5 -5 -10 -11 -10 -5 0 -7 5
-4 10 3 6 8 10 11 10 2 0 4 -4 4 -10z m-3115 -210 c3 -6 -1 -7 -9 -4 -18 7
-21 14 -7 14 6 0 13 -4 16 -10z m3031 -435 c-3 -9 0 -15 9 -15 8 0 15 -7 15
-17 0 -15 -2 -15 -19 1 -17 15 -19 46 -4 46 3 0 3 -7 -1 -15z m130 -849 c1 -9
-4 -12 -11 -9 -8 2 -13 13 -12 24 1 21 19 9 23 -15z m-310 -315 c0 -17 -3 -28
-8 -25 -4 3 -8 16 -8 30 0 13 4 24 8 24 5 0 8 -13 8 -29z m324 -547 c0 -3 -4
-2 -10 1 -5 3 -10 1 -10 -4 0 -6 -4 -11 -9 -11 -6 0 -9 9 -8 19 1 16 5 18 19
10 10 -5 18 -12 18 -15z m-320 -254 c0 -5 -5 -10 -11 -10 -5 0 -7 5 -4 10 3 6
8 10 11 10 2 0 4 -4 4 -10z m-15 -110 c2 -12 1 -20 -2 -16 -4 4 -8 16 -10 28
-4 28 6 18 12 -12z m8 -88 c3 7 4 0 2 -17 -1 -16 1 -37 5 -45 6 -11 3 -16 -10
-16 -11 0 -16 5 -12 15 4 10 1 12 -9 7 -8 -4 -5 0 5 8 13 11 15 16 6 16 -7 0
-10 3 -7 6 3 4 2 16 -4 28 -9 20 -9 20 4 3 11 -14 16 -15 20 -5z m17 -176 c0
-2 -7 -7 -16 -10 -8 -3 -12 -2 -9 4 6 10 25 14 25 6z m-2030 -96 c0 -5 -2 -10
-4 -10 -3 0 -8 5 -11 10 -3 6 -1 10 4 10 6 0 11 -4 11 -10z m320 0 c0 -5 -2
-10 -4 -10 -3 0 -8 5 -11 10 -3 6 -1 10 4 10 6 0 11 -4 11 -10z m2135 -211
c-5 -25 -15 -38 -15 -20 0 7 -5 9 -10 6 -6 -4 -9 -1 -8 7 2 10 14 20 35 27 1
1 0 -9 -2 -20z m-425 -144 c0 -10 -9 -14 -24 -13 -14 1 -22 6 -20 10 3 4 11 5
19 1 8 -3 15 0 15 6 0 6 2 11 5 11 3 0 5 -7 5 -15z m156 -1 c8 3 12 1 9 -4 -8
-12 -74 -10 -82 3 -3 6 -1 7 5 3 7 -4 12 -2 12 4 0 8 6 8 21 0 11 -7 27 -9 35
-6z m30 -185 c3 -6 2 -15 -4 -21 -6 -6 -11 -2 -15 11 -5 22 7 29 19 10z m-40
-484 c-1 -13 -6 -28 -10 -32 -5 -4 -6 -2 -2 5 4 7 2 12 -6 12 -9 0 -9 3 2 10
12 8 12 10 -5 11 l-20 0 20 9 c11 5 20 9 21 9 0 1 0 -10 0 -24z m-2283 -51
c-4 -11 -9 -12 -19 -3 -18 15 -18 14 5 16 14 1 18 -3 14 -13z m2269 -439 c-2
-10 2 -21 9 -25 9 -6 8 -13 -4 -30 -15 -22 -12 -64 4 -54 5 3 9 3 9 0 0 -3 -8
-9 -17 -15 -16 -8 -18 -3 -20 40 0 27 -6 56 -13 63 -9 11 -6 16 11 21 17 6 19
9 8 17 -12 8 -11 9 1 5 8 -2 14 -12 12 -22z m-2287 -303 c-3 -3 -11 0 -18 7
-9 10 -8 11 6 5 10 -3 15 -9 12 -12z m2305 -316 c0 -3 -4 -8 -10 -11 -5 -3
-10 -1 -10 4 0 6 5 11 10 11 6 0 10 -2 10 -4z m-23 -290 c-1 -25 -5 -48 -8
-51 -4 -3 -6 5 -5 17 1 13 -2 29 -7 36 -6 8 -5 12 2 12 6 0 10 3 10 8 -2 12 1
22 6 22 3 0 4 -20 2 -44z m443 -27 c0 -11 -4 -17 -10 -14 -5 3 -10 15 -10 26
0 11 5 17 10 14 6 -3 10 -15 10 -26z m255 -79 c3 -5 1 -10 -4 -10 -6 0 -11 5
-11 10 0 6 2 10 4 10 3 0 8 -4 11 -10z m-695 -49 c0 -6 -4 -12 -8 -15 -5 -3
-9 1 -9 9 0 8 4 15 9 15 4 0 8 -4 8 -9z m199 -476 c2 -65 -1 -85 -11 -85 -10
0 -10 -2 1 -9 9 -6 10 -11 2 -15 -6 -4 -12 -1 -12 6 -1 7 -2 20 -3 28 -1 8 3
21 7 27 6 8 4 15 -7 19 -9 3 -16 10 -16 16 0 5 4 7 8 4 5 -3 9 1 9 9 0 8 -5
11 -11 7 -6 -3 -3 7 8 22 10 16 13 25 7 22 -13 -8 -14 -4 -5 18 13 34 20 13
23 -69z m-321 11 c-1 -14 -6 -23 -9 -20 -10 6 -7 44 3 44 4 0 7 -11 6 -24z
m277 -96 c4 -6 -1 -7 -12 -3 -16 6 -16 5 -4 -10 12 -15 12 -17 -3 -11 -17 6
-20 16 -9 27 9 10 21 9 28 -3z m-776 -22 c-5 -10 -12 -18 -14 -18 -3 0 -5 8
-5 18 0 10 7 19 14 19 11 0 13 -5 5 -19z m101 3 c0 -17 -18 -21 -24 -6 -3 9 0
15 9 15 8 0 15 -4 15 -9z m391 -14 c-10 -9 -11 -8 -5 6 3 10 9 15 12 12 3 -3
0 -11 -7 -18z"/>
<path d="M3480 7209 c0 -5 5 -7 10 -4 6 3 10 8 10 11 0 2 -4 4 -10 4 -5 0 -10
-5 -10 -11z"/>
<path d="M6580 6660 c0 -5 5 -10 11 -10 5 0 7 5 4 10 -3 6 -8 10 -11 10 -2 0
-4 -4 -4 -10z"/>
<path d="M3916 9362 c-3 -5 1 -9 9 -9 8 0 12 4 9 9 -3 4 -7 8 -9 8 -2 0 -6 -4
-9 -8z"/>
<path d="M2960 8865 c-1 -11 -4 -15 -6 -8 -4 8 -14 9 -34 3 -16 -4 -31 -5 -35
-2 -3 4 -3 -2 1 -12 5 -12 9 -14 14 -6 5 8 9 6 14 -5 4 -11 10 -14 19 -8 15
10 38 10 56 -1 10 -6 12 -5 7 2 -8 13 20 12 41 -1 16 -10 24 5 12 23 -5 8 -9
11 -9 5 0 -5 -4 -4 -9 4 -8 12 -15 13 -35 3 -21 -9 -25 -8 -29 6 -4 14 -5 13
-7 -3z"/>
<path d="M1524 7522 c4 -7 -3 -10 -23 -7 -17 2 -31 -2 -34 -9 -3 -6 3 -12 13
-12 10 0 16 4 14 8 -7 11 4 10 28 -3 13 -7 18 -7 14 -1 -4 6 2 10 14 9 11 -1
20 -5 20 -9 0 -5 9 -4 20 2 11 6 20 7 20 3 0 -4 13 -8 30 -8 33 0 59 18 41 29
-6 4 -11 0 -11 -8 0 -9 -5 -16 -11 -16 -5 0 -8 4 -4 9 3 6 -6 8 -20 5 -15 -3
-25 0 -25 7 0 8 -4 8 -13 0 -14 -11 -47 -8 -69 5 -7 4 -8 3 -4 -4z"/>
<path d="M1404 7512 c4 -3 14 -7 22 -8 9 -1 13 0 10 4 -4 3 -14 7 -22 8 -9 1
-13 0 -10 -4z"/>
<path d="M1696 7513 c-11 -11 -6 -23 9 -23 8 0 15 4 15 9 0 13 -16 22 -24 14z"/>
<path d="M2596 3873 c-6 -14 -5 -15 5 -6 7 7 10 15 7 18 -3 3 -9 -2 -12 -12z"/>
<path d="M2151 3784 c6 -7 17 -10 25 -7 22 8 16 19 -11 19 -18 0 -22 -3 -14
-12z"/>
<path d="M2111 3787 c2 -1 13 -9 24 -17 19 -14 19 -14 6 3 -7 9 -18 17 -24 17
-6 0 -8 -1 -6 -3z"/>
<path d="M2683 1699 c9 -6 15 -14 13 -18 -3 -4 8 -7 25 -7 31 0 39 10 13 20
-8 3 -12 2 -9 -4 10 -16 -11 -12 -25 5 -7 8 -18 15 -24 15 -6 0 -3 -5 7 -11z"/>
<path d="M2540 1690 c18 -12 30 -13 30 -2 0 4 -10 9 -22 9 -18 2 -20 0 -8 -7z"/>
<path d="M2615 1690 c3 -5 8 -10 11 -10 2 0 4 5 4 10 0 6 -5 10 -11 10 -5 0
-7 -4 -4 -10z"/>
<path d="M2660 1679 c0 -5 5 -7 10 -4 6 3 10 8 10 11 0 2 -4 4 -10 4 -5 0 -10
-5 -10 -11z"/>
<path d="M4550 1480 c0 -5 5 -10 11 -10 5 0 7 5 4 10 -3 6 -8 10 -11 10 -2 0
-4 -4 -4 -10z"/>
</g>
</svg>
