<svg xmlns="http://www.w3.org/2000/svg" width="694" height="913" viewBox="0 0 694 913">
  <defs>
    <style>
      .cls-1 {
        fill: #2f3c7e;
        fill-rule: evenodd;
      }
    </style>
  </defs>
  <path id="Code_Geass_Symbol_11_1" data-name="Code Geass Symbol 11 1" class="cls-1" d="M1228.01,768.02c-54.79,200.858-182.64,328.68-255.692,346.94C935.791,1133.22,881,1188,881,1188s-54.791-54.78-91.318-73.04c-73.054-18.26-200.9-146.082-255.69-365.2,0,0,54.791,73.039,73.055,54.779-54.791-182.6,109.581-401.716,109.581-401.716,0,18.26-18.264,73.04,36.527,73.04S881,293.264,881,275.005c0,18.259,73.054,200.858,127.84,200.858s37.69-53.338,36.53-73.04c0,0,164.37,219.118,109.58,401.716C1173.22,822.8,1228.01,768.02,1228.01,768.02ZM881,548.9c-90.78,0-164.372,106.278-164.372,237.377S844.473,1005.4,881,1005.4s164.37-88.021,164.37-219.121S971.781,548.9,881,548.9Zm73.054,466.128c36.527,18.26,36.527,26.89,36.527,26.89S881,1078.44,881,1114.96c0-36.52-109.581-73.04-109.581-73.04s0-9.64,36.527-27.9c-54.791-8.62-91.318-8.62-182.636-99.922,73.054,91.3,91.318,91.3,146.109,109.562l-18.264,18.26c91.318,36.52,127.845,91.3,127.845,91.3s36.527-54.78,127.84-91.3l-18.259-18.26c54.789-18.26,73.059-18.26,127.849-109.562C1045.37,1005.4,1008.84,1005.4,954.054,1015.03ZM862.736,615.854c-111.61,11.159-127.844,145.065-127.844,145.065C739.965,638.172,826.209,567.162,881,567.162c0,18.259-1.015,266.8-1.015,266.8Z" transform="translate(-534 -275)"/>
</svg>
