<?xml version="1.0" standalone="no"?>
<!DOCTYPE svg PUBLIC "-//W3C//DTD SVG 20010904//EN"
 "http://www.w3.org/TR/2001/REC-SVG-20010904/DTD/svg10.dtd">
<svg version="1.0" xmlns="http://www.w3.org/2000/svg"
 width="913.000000pt" height="913.000000pt" viewBox="0 0 913.000000 913.000000"
 preserveAspectRatio="xMidYMid meet">
<metadata>
Created by potrace 1.11, written by Peter Selinger 2001-2013
</metadata>
<g transform="translate(0.000000,913.000000) scale(0.100000,-0.100000)"
fill="#000000" stroke="none">
<path d="M4545 9058 c-10 -48 -86 -271 -96 -282 -5 -6 -9 -20 -9 -32 0 -13 -4
-25 -9 -28 -4 -3 -19 -34 -31 -68 -13 -35 -32 -79 -42 -98 -10 -19 -18 -38
-18 -42 0 -9 -59 -136 -142 -308 -149 -305 -323 -589 -478 -781 -54 -66 -188
-197 -210 -204 -11 -4 -20 -10 -20 -14 0 -9 -89 -54 -137 -69 -52 -17 -209 -5
-255 19 -10 5 -18 7 -18 3 0 -4 -9 1 -20 11 -11 10 -20 14 -20 9 0 -5 -24 16
-53 47 -72 75 -98 152 -97 293 0 55 2 115 4 131 2 17 7 59 11 95 3 36 8 70 10
77 2 7 1 15 -4 17 -7 5 -271 -383 -271 -398 0 -4 -8 -19 -19 -34 -28 -42 -55
-86 -56 -92 0 -3 -14 -28 -31 -55 -58 -92 -334 -624 -340 -655 -1 -7 -18 -45
-54 -125 -18 -38 -38 -86 -45 -105 -7 -19 -19 -48 -26 -65 -6 -16 -13 -34 -15
-40 -1 -5 -16 -44 -32 -85 -27 -70 -89 -249 -125 -365 -39 -124 -103 -391
-122 -505 -3 -19 -8 -46 -10 -60 -11 -54 -13 -69 -20 -121 -3 -30 -8 -61 -10
-69 -19 -72 -27 -623 -11 -740 4 -30 9 -71 12 -90 4 -33 9 -64 18 -120 10 -58
47 -217 57 -242 9 -22 8 -30 -4 -43 -28 -27 -110 -21 -167 13 -105 63 -129 82
-244 197 -94 93 -153 157 -221 239 -22 27 -46 55 -52 62 -7 7 -13 17 -13 23 0
6 -4 11 -10 11 -5 0 -8 -6 -5 -12 6 -19 67 -241 69 -253 4 -17 28 -99 35 -120
18 -48 42 -122 46 -139 3 -11 12 -42 22 -70 9 -28 18 -53 18 -56 1 -3 7 -18
13 -33 7 -16 12 -33 12 -38 0 -5 4 -17 10 -27 5 -9 21 -51 35 -92 14 -41 30
-84 35 -95 5 -11 30 -72 56 -135 25 -63 64 -153 85 -198 22 -46 39 -86 39 -89
0 -10 184 -370 202 -395 11 -16 17 -28 14 -28 -3 0 10 -25 29 -55 19 -30 35
-59 35 -65 0 -5 5 -10 11 -10 5 0 8 -4 5 -9 -3 -5 1 -14 9 -21 8 -7 15 -19 15
-26 0 -8 5 -14 10 -14 6 0 10 -5 10 -11 0 -11 40 -76 111 -181 22 -31 39 -59
39 -63 0 -3 5 -11 10 -18 6 -7 41 -55 78 -107 82 -117 173 -238 201 -267 12
-12 21 -26 21 -32 0 -5 3 -11 8 -13 7 -3 24 -23 127 -142 51 -60 283 -295 326
-331 13 -11 56 -47 94 -79 39 -32 81 -68 95 -80 14 -11 55 -41 90 -66 36 -24
67 -48 68 -52 2 -4 9 -8 16 -8 7 0 17 -5 24 -12 34 -34 239 -136 338 -168 38
-12 85 -29 104 -37 34 -16 210 -126 240 -151 8 -7 67 -53 130 -102 103 -81
150 -120 225 -185 37 -33 210 -193 259 -241 l46 -44 51 50 c29 28 88 83 132
123 44 39 99 90 123 112 23 22 55 49 70 60 15 11 35 27 43 36 13 13 130 107
179 144 7 6 22 18 33 27 10 10 21 18 24 18 3 0 29 17 58 38 92 66 170 109 252
137 44 15 125 49 181 75 102 48 296 164 302 181 2 5 8 9 14 9 5 0 15 6 22 13
8 6 24 19 36 27 22 15 124 95 146 115 6 6 39 35 74 65 85 74 251 240 330 330
36 41 74 84 86 96 36 38 208 256 267 339 31 44 61 85 66 91 9 11 121 178 157
234 51 80 123 199 159 265 22 39 47 84 57 100 9 17 32 59 50 95 18 36 35 67
38 70 3 3 6 12 8 20 2 8 8 17 13 18 5 2 9 11 9 21 0 9 4 21 9 26 14 14 134
278 188 410 24 61 48 119 53 130 9 18 53 133 55 145 1 3 4 12 8 20 12 33 49
136 52 145 2 12 6 22 29 90 10 28 19 57 21 65 2 9 15 55 30 102 14 48 28 95
30 105 2 10 7 27 11 38 4 11 -20 -6 -54 -39 -82 -78 -258 -214 -340 -262 -134
-79 -237 -103 -301 -69 -34 17 -36 21 -20 62 6 15 12 35 14 44 2 9 12 59 23
110 11 52 23 112 26 134 3 22 8 51 11 65 13 74 19 189 20 400 0 243 -4 306
-31 500 -10 77 -11 84 -18 120 -3 19 -8 46 -10 60 -4 22 -33 162 -41 200 -2 8
-15 58 -30 110 -14 52 -28 106 -31 120 -3 14 -12 45 -20 70 -9 25 -17 52 -19
60 -5 26 -87 264 -97 283 -5 10 -11 26 -13 35 -3 16 -99 252 -143 352 -70 162
-239 498 -301 600 -11 19 -25 45 -30 57 -6 12 -28 51 -51 86 -22 35 -40 69
-40 74 0 5 -9 18 -20 28 -10 9 -18 20 -18 24 4 13 -249 398 -277 421 -16 13
-17 13 -12 -5 3 -11 9 -45 12 -75 3 -30 8 -63 11 -73 3 -10 7 -68 8 -130 7
-279 -101 -408 -351 -422 -99 -6 -159 11 -250 71 -64 43 -212 188 -251 247
-13 20 -29 37 -33 37 -5 0 -9 6 -9 14 0 8 -3 16 -7 18 -10 4 -63 75 -63 83 0
3 -13 23 -29 43 -75 96 -298 502 -398 727 -18 39 -45 99 -61 136 -70 153 -196
489 -185 489 3 0 1 6 -5 13 -6 6 -13 29 -17 50 -9 46 -21 48 -30 5z m205
-2682 c54 -10 163 -37 185 -46 102 -41 140 -58 205 -92 119 -64 225 -145 344
-264 108 -107 166 -170 166 -179 0 -2 22 -34 50 -70 115 -151 241 -396 320
-620 17 -49 36 -101 41 -115 5 -14 11 -34 14 -45 3 -11 14 -56 26 -100 11 -44
22 -87 23 -95 2 -8 6 -28 9 -45 14 -64 22 -111 32 -180 3 -27 8 -57 11 -65 2
-8 6 -51 9 -95 3 -44 8 -96 11 -115 7 -52 8 -336 1 -408 -6 -60 -23 -172 -32
-217 -15 -75 -47 -199 -53 -210 -4 -5 -8 -17 -9 -26 -14 -90 -212 -494 -297
-604 -8 -11 -51 -68 -96 -127 -44 -59 -92 -120 -107 -136 -216 -227 -274 -281
-428 -398 -220 -168 -464 -289 -595 -296 -43 -3 -123 10 -159 24 -112 46 -205
89 -212 101 -3 5 -10 9 -15 9 -15 1 -122 69 -205 130 -44 32 -82 59 -86 60 -3
2 -18 14 -32 28 -15 14 -53 48 -86 75 -209 177 -441 460 -582 710 -27 48 -123
244 -123 252 0 3 -6 19 -14 36 -45 98 -105 323 -131 487 -22 140 -22 497 -1
630 3 14 7 52 11 85 3 33 8 69 11 80 2 11 6 31 8 45 13 78 21 116 48 225 16
66 31 125 32 130 23 95 90 272 152 403 24 52 44 98 44 103 0 5 5 9 10 9 6 0
10 9 10 20 0 11 4 20 8 20 4 0 13 12 19 28 12 26 120 198 142 224 6 7 36 45
67 83 78 98 226 242 310 301 105 74 138 94 214 132 111 54 146 68 200 82 25 6
52 14 60 17 8 3 26 7 40 9 14 2 45 8 70 13 49 9 304 7 360 -3z m-2508 -3867
c25 -24 70 -64 99 -89 30 -25 60 -52 69 -60 62 -61 388 -300 409 -300 6 0 11
-3 11 -7 0 -5 18 -17 40 -27 22 -11 40 -24 40 -29 0 -6 3 -8 6 -4 3 3 24 -5
45 -19 21 -13 45 -24 52 -24 7 0 17 -4 22 -9 27 -26 318 -124 405 -137 19 -3
41 -7 49 -10 7 -2 34 -7 60 -10 25 -2 53 -7 61 -9 8 -3 33 -7 55 -10 66 -10
148 -25 151 -28 2 -2 -13 -12 -34 -22 -78 -41 -157 -89 -160 -97 -2 -4 -8 -8
-14 -8 -5 0 -15 -6 -22 -12 -7 -7 -28 -24 -46 -38 -18 -14 -43 -40 -56 -59
l-23 -35 27 -11 c15 -7 54 -22 87 -34 33 -13 69 -27 80 -31 11 -5 61 -25 110
-45 111 -45 361 -167 410 -200 20 -14 38 -25 41 -25 8 0 125 -81 158 -109 73
-62 136 -134 158 -180 12 -28 25 -50 28 -51 3 0 15 23 28 50 42 92 178 210
372 323 73 42 323 167 335 167 3 0 28 11 57 24 29 13 80 33 112 45 33 12 64
25 70 29 6 4 13 7 16 7 3 1 29 9 58 19 l52 18 -20 28 c-34 47 -106 102 -227
173 -64 37 -115 67 -112 68 2 0 13 2 24 5 11 2 36 6 55 9 200 28 432 84 554
135 99 41 229 109 234 122 2 4 8 8 13 8 9 0 141 92 165 115 6 5 30 26 55 45
91 73 334 325 450 467 23 29 44 51 47 49 2 -3 -15 -32 -37 -66 -23 -34 -41
-63 -41 -65 0 -6 -117 -182 -154 -231 -17 -23 -38 -52 -46 -64 -8 -12 -22 -30
-30 -40 -8 -10 -28 -35 -45 -56 -45 -57 -174 -186 -230 -230 -27 -21 -52 -42
-55 -45 -11 -13 -214 -114 -250 -124 -14 -4 -29 -11 -35 -15 -5 -4 -23 -11
-40 -15 -34 -9 -35 -10 -55 -18 -8 -3 -60 -20 -115 -38 -55 -18 -102 -34 -104
-36 -2 -1 35 -41 83 -89 47 -47 86 -89 86 -94 0 -4 -11 -11 -24 -14 -62 -15
-335 -151 -477 -237 -111 -66 -261 -166 -294 -196 -12 -10 -36 -29 -55 -43
-82 -58 -277 -243 -348 -331 -15 -18 -37 -44 -49 -58 l-23 -26 -22 26 c-13 14
-42 48 -64 75 -40 47 -162 169 -214 214 -79 68 -125 107 -144 120 -12 8 -25
18 -31 22 -5 5 -28 22 -50 38 -22 16 -44 33 -50 38 -5 4 -28 19 -50 32 -22 13
-42 27 -45 30 -3 4 -10 9 -15 11 -14 6 -159 92 -165 99 -8 9 -249 125 -342
165 l-86 38 90 88 91 88 -29 12 c-16 6 -37 15 -46 20 -10 5 -23 9 -29 9 -24 0
-309 105 -389 143 -199 96 -393 255 -621 508 -128 143 -121 134 -199 229 -51
62 -70 85 -99 119 -43 50 -18 31 62 -46 45 -44 103 -100 129 -124z"/>
<path d="M4430 6195 c-60 -10 -162 -40 -185 -54 -5 -3 -19 -7 -30 -8 -10 -2
-22 -7 -25 -11 -3 -4 -38 -23 -77 -42 -40 -19 -73 -38 -73 -42 0 -5 -5 -8 -10
-8 -6 0 -16 -4 -23 -10 -7 -5 -48 -36 -92 -68 -133 -98 -285 -256 -406 -422
-74 -101 -229 -388 -229 -423 0 -7 -4 -17 -9 -22 -8 -10 -58 -147 -66 -182 -2
-10 -9 -34 -15 -53 -14 -45 -49 -200 -56 -248 -3 -20 -7 -44 -9 -52 -2 -8 -7
-46 -11 -85 -3 -38 -8 -78 -10 -87 -1 -10 1 -18 5 -18 5 0 12 19 16 43 11 59
22 110 25 115 2 1 3 5 4 10 1 4 5 13 9 20 5 6 6 12 3 12 -15 0 96 284 157 400
33 62 130 218 159 255 92 115 160 182 303 293 19 15 150 89 185 105 118 53
244 89 363 103 l47 5 1 -38 c0 -21 2 -47 4 -58 2 -11 6 -58 9 -105 11 -156 16
-215 21 -275 3 -33 8 -94 11 -135 3 -41 7 -100 10 -130 2 -30 7 -82 9 -115 3
-33 7 -85 9 -115 10 -112 18 -212 21 -263 2 -29 6 -81 9 -117 3 -36 8 -99 10
-140 3 -41 6 -75 7 -75 1 0 2 -20 4 -45 1 -25 5 -81 9 -125 4 -44 9 -100 11
-125 8 -127 18 -225 21 -229 2 -2 4 34 4 80 1 179 11 2225 10 2239 0 8 0 69 0
136 l-1 121 -32 -1 c-18 0 -61 -5 -97 -11z"/>
<path d="M3097 4335 c-4 -8 -3 -16 1 -19 4 -3 9 4 9 15 2 23 -3 25 -10 4z"/>
</g>
</svg>
